<svg version="1" xmlns="http://www.w3.org/2000/svg" width="960" height="960" viewBox="0 0 720.000000 720.000000"><path d="M674.5 145.6c-14.8.7-43.4 2-63.5 2.8-20.1.9-51.6 2.3-70 3.1-58.4 2.6-122.3 5.4-159 7-19.5.8-39.8 1.7-45 2-9.7.6-60.2 2.8-103.5 4.5-13.2.5-33 1.4-44 2-11 .6-31 1.5-44.5 2-44 1.8-52.1 2.3-52.7 3.3-.4.6-1.7 6.1-2.9 12.1-9 44.6-20.5 101.5-32.9 163.1-8 39.6-18.8 92.9-24 118.5-5.1 25.6-10.5 51.9-11.8 58.5-1.4 6.6-2.4 12.2-2.2 12.6.3.3 11.1.9 24.2 1.2 13.1.4 33.9 1.1 46.3 1.7 21.8 1 37.1 1.6 125 4.5 42 1.4 77.8 2.7 126 4.5 14.6.6 47.4 1.7 73 2.5s49.4 1.7 53 2c3.6.3 23.6.9 44.5 1.5 20.9.5 46.1 1.4 56 2 9.9.5 26.8 1.2 37.6 1.5l19.6.6 1.1-5.3c1.4-6.3 6.9-34.2 8.7-44.8.7-4.1 2.3-12.2 3.5-18 1.2-5.8 2.4-11.9 2.7-13.5.3-1.7 1.8-10 3.5-18.5 1.6-8.5 3.6-18.9 4.3-23 .8-4.1 2.4-12.2 3.5-18 1.2-5.8 2.6-12.8 3-15.5.9-5.8 3.5-19.2 5.5-28.5.7-3.6 2.3-11.7 3.5-18 3.5-19.3 5.1-27.2 6.5-34 .8-3.6 1.7-8.5 2-11 .4-2.5 1.3-7.2 2-10.5.8-3.3 2.3-11.2 3.5-17.5 2.9-15.7 4.9-26.2 6.6-34.5.7-3.9 3.2-16.7 5.4-28.5 2.3-11.8 4.8-25.1 5.6-29.5.9-4.4 2.2-11.2 3-15 5.7-28.8 6.2-31.6 4.7-31.4-.5.1-12.9.8-27.8 1.5zm8.9 17c-.6 3.7-17 89.5-37 193.4-5.8 30-13.6 70.9-17.5 91-3.8 20.1-9.2 48.2-12 62.5-2.8 14.3-5.3 27.5-5.6 29.3-.7 3.8 2.3 3.6-36.8 2.2-14.3-.5-39.3-1.4-55.5-2-16.2-.5-41.9-1.5-57-2-15.1-.6-46.7-1.7-70.2-2.5-23.6-.8-62-2.2-85.5-3-23.6-.8-55.2-1.9-70.3-2.5-15.1-.6-40.3-1.5-56-2-148.3-5.2-142-4.9-142-6.7 0-1.5.8-5.5 13.5-68.3 4.8-23.4 17-83.7 27.1-134 10.2-50.3 18.9-93.5 19.5-96 .5-2.5 1.6-7.9 2.3-12 2.4-12.5 4.6-22.4 5.2-22.9.2-.3 8.4-.8 18.2-1.2 9.7-.4 28.7-1.2 42.2-1.8 84.2-3.8 115.5-5.2 172-7.6 18.4-.8 43.2-1.9 55-2.5 21.4-1 70.4-3.1 114.5-5 12.7-.5 32.7-1.4 44.5-2 11.8-.5 33.2-1.5 47.5-2.1 14.3-.6 38.4-1.7 53.5-2.4 29.9-1.3 30.6-1.3 30.4.1z"/><path d="M152.5 223.2c-.2.7-2 9.4-3.9 19.3-2 9.9-6.7 33.5-10.6 52.5-3.9 19-7.7 37.6-8.4 41.5-.8 3.8-2.8 13.7-4.5 22-1.7 8.2-7.7 38.2-13.5 66.5-5.7 28.3-10.7 52.7-11.1 54.3l-.7 2.7 29.3-.2 29.3-.3 1.8-9c.9-5 6.2-31.3 11.7-58.5 5.6-27.2 10.1-49.8 10.1-50.2 0-.4 31.6-.8 70.3-.8 44.8 0 71.8-.4 74.7-1.1 12.8-2.9 27.7-14.6 33.1-25.9 1.5-3 3.7-10.2 4.9-16 8.3-40.2 13-64.9 13-69 0-7.8-2.7-13.9-8.9-20-9.7-9.6-1.5-9-116.2-9-79.1 0-100 .3-100.4 1.2zM316 274.5c0 1.6-7 34.7-7.5 35.5-.4.6-21.4 1-58.2 1h-57.5l.5-2.3c.3-1.2 2-9.5 3.8-18.5l3.3-16.2h57.8c31.8 0 57.8.2 57.8.5zM433.5 223.8c-12.7 4.4-23.7 13.7-29 24.6-2.4 5-4.3 11.6-6.6 22.6-9.4 46.5-13.9 68.8-24.4 120.5-12.6 61.7-13 64.8-8.6 73.2 2.9 5.7 8.8 11.3 15 14.2l5.6 2.6 91.3.3c50.1.1 91.2.1 91.2 0 0-.2 2.3-11.3 5-24.8s5-25.1 5-25.8c0-.9-16-1.2-76.4-1.2-42.1 0-76.7-.3-77-.8-.2-.4 2.7-16 6.4-34.7 14.4-71.3 24-118 24.5-119.3.3-.9 16.7-1.2 77.4-1.2 72.4 0 77-.1 77.5-1.8 1-3.3 9.6-46.5 9.6-48.3 0-1.8-2.9-1.9-90.7-1.9-83.5.1-91.2.2-95.8 1.8z"/></svg>