<svg id="Layer_1" xmlns="http://www.w3.org/2000/svg" viewBox="0 0 446 232"><style>.st0{fill:none}.st1{fill:#201e1e}.st2{fill:#ffcc29}</style><g id="Capa_x0020_1"><g id="_1961683852160"><path class="st0" d="M26.1 46h389.3v145.5H26.1z"/><path class="st1" d="M45.3 63.1l-15.6 63.3 367.7 10.8 15.4-82.7z"/><path class="st2" d="M45.3 63.1l-13.9 56.6 360.3 10.7 13.5-75.7z"/><path class="st1" d="M88.2 86.5c-.3 1.8-1.2 3.4-2.7 4.7-1.6 1.3-3.3 2-5.2 2H55.9l-3.1 21.5H42.3L49 67.8h34.8c1.9 0 3.5.7 4.6 2 1.2 1.3 1.6 2.9 1.4 4.7l-1.6 12zm-10.1-2.7l1-6.7H58.2l-1 6.7h20.9z"/><path id="_x31_" class="st1" d="M131.1 108c-.3 1.8-1.2 3.4-2.7 4.7-1.6 1.3-3.3 2-5.2 2H95.3c-1.9 0-3.5-.7-4.6-2-1.2-1.3-1.6-2.9-1.4-4.7L95 67.8h10.5l-5.4 37.6H121l5.4-37.6h10.4l-5.7 40.2z"/><path id="_x32_" class="st1" d="M177 108c-.3 1.8-1.2 3.4-2.7 4.7-1.6 1.3-3.3 2-5.2 2h-34.8l6.7-46.9h34.8c1.9 0 3.5.7 4.6 2 1.2 1.3 1.6 2.9 1.4 4.7l-1 7.4c-.3 1.8-1.2 3.4-2.7 4.7-1.6 1.3-3.3 2-5.2 2 1.9 0 3.5.7 4.6 2 1.2 1.3 1.6 2.9 1.4 4.7L177 108zm-7-24.2l1-6.7h-20.9l-1 6.7H170zm-3 21.6l1.8-12.2h-20.9l-1.8 12.2H167z"/><path id="_x33_" class="st1" d="M218.6 114.7h-31.4c-1.9 0-3.4-.7-4.6-2-1.2-1.3-1.6-2.9-1.4-4.7l5.8-40.2h10.5l-5.4 37.6H220l-1.4 9.3z"/><path id="_x34_" class="st1" d="M233.2 114.7h-10.5l6.8-46.9h10.4z"/><path id="_x35_" class="st1" d="M275.7 114.7h-31.4c-1.9 0-3.5-.7-4.6-2-1.2-1.3-1.6-2.9-1.4-4.7l4.8-33.5c.3-1.8 1.2-3.4 2.7-4.7 1.6-1.3 3.3-2 5.2-2h31.4l-1.3 9.3h-27.9l-4.1 28.3H277l-1.3 9.3z"/><path id="_x36_" class="st1" d="M290.3 114.7h-10.4l6.7-46.9H297z"/><path id="_x37_" class="st1" d="M336.3 114.7h-10.5L309 86.5l-4.1 28.2h-10.4l6.7-46.9h10.5l16.8 28.1 4.1-28.1H343z"/><path id="_x38_" class="st1" d="M378.8 114.7h-31.4c-1.9 0-3.4-.7-4.6-2-1.2-1.3-1.6-2.9-1.4-4.7l4.8-33.5c.3-1.8 1.2-3.4 2.7-4.7 1.6-1.3 3.3-2 5.2-2h31.4l-1.3 9.3h-27.9l-1 6.7h27.9l-1.3 9.3H354l-1.8 12.2h27.9l-1.3 9.4z"/><path class="st1" d="M118.8 159.8c.6-.4 1.5-.8 2.8-1.2 1.3-.4 2.7-.9 4.4-1.3 1.6-.4 3.4-.9 5.2-1.3 1.8-.4 3.6-.8 5.2-1.1 1.7-.3 3.2-.6 4.5-.8 1.3-.2 2.4-.3 3-.3.3 0 .6.1 1 .2s.7.3 1 .5c.3.2.4.4.4.5 0 .2-.3.3-.9.3-.7 0-1.6.1-2.5.3-1 .2-2 .4-3.1.7-1.2.2-2.4.5-3.7.9-1.3.3-2.6.7-3.9 1 .3.3.5.6.7 1 .2.4.2.8 0 1-.4.8-1 1.7-1.8 2.8-.8 1.1-1.6 2.3-2.4 3.5-.9 1.2-1.8 2.6-2.7 3.9-.9 1.3-1.8 2.6-2.6 3.8-.8 1.2-1.4 2.4-2 3.4-.6 1-.9 1.9-1.1 2.5-.1.5-.3.7-.5.6-.2-.1-.5-.3-.7-.7-.3-.4-.5-.8-.6-1.3-.2-.5-.3-1-.2-1.3 0-.2.3-.8.8-1.6.5-.9 1.2-1.9 2-3.1.8-1.2 1.7-2.5 2.7-3.9s2-2.7 2.9-4c1-1.3 1.8-2.5 2.6-3.7.8-1.1 1.4-2 1.8-2.6-1.2.3-2.4.7-3.6 1.1-1.2.4-2.3.8-3.4 1.1-1.1.4-2.1.8-3.1 1.1-1 .4-1.8.7-2.6 1.1-.3.1-.5.1-.6-.2-.1-.3-.1-.6 0-1s.2-.8.4-1.2c0-.3.3-.5.6-.7z"/><path id="_x31__1_" class="st1" d="M133.5 174c.2.3.6.3 1.2.2s1.2-.3 1.9-.7c.7-.3 1.5-.7 2.3-1.2.8-.5 1.6-1 2.4-1.6.8-.5 1.5-1.1 2.2-1.6.7-.5 1.2-1 1.6-1.4.3-.3.7-.6 1-.7.3-.2.5-.3.7-.2.2 0 .3.1.3.3 0 .2-.1.4-.4.7-1 1-2 2-3.1 3s-2.2 1.9-3.3 2.8c-1.1.9-2.1 1.5-3.1 2.1-1 .5-1.8.8-2.5.8-.4 0-.7-.1-1.2-.3-.4-.1-.8-.4-1.1-.7-.4-.3-.7-.8-.9-1.3-.2-.5-.4-1.2-.4-1.9 0-.5.2-1.1.6-1.8.4-.7.9-1.5 1.6-2.4.6-.8 1.3-1.6 2.1-2.4s1.6-1.6 2.4-2.2c.8-.7 1.5-1.2 2.2-1.6.7-.4 1.2-.6 1.7-.6.1 0 .4 0 .7.1.3.1.6.3.8.5.3.2.5.5.7.9.2.4.3.9.2 1.4-.1.6-.3 1.2-.7 1.8-.4.6-.9 1.2-1.5 1.8-.6.6-1.2 1.1-1.8 1.6-.6.5-1.1.8-1.5 1-.7.4-1.4.6-2 .4s-1.2-.5-1.6-.9c-.7.9-1.1 1.8-1.4 2.5-.4.7-.4 1.3-.1 1.6zm8.1-10.2c-.2-.1-.5-.1-1 .2-.5.3-1 .6-1.5 1.1-.6.5-1.2 1.1-1.8 1.7l-1.8 2.1c.4.2.8.2 1.3 0 .5-.1 1-.4 1.4-.8.5-.3 1-.7 1.4-1.2.5-.5.9-.9 1.2-1.4.3-.4.6-.8.7-1.2.2-.2.2-.4.1-.5z"/><path id="_x32__1_" class="st1" d="M162.4 173.3c.1.3.4.3 1 0s1.3-.7 2.2-1.3c.9-.6 1.7-1.3 2.7-2 .9-.8 1.8-1.5 2.5-2.3.3-.3.7-.6.9-.7.3-.1.6-.2.8-.2.2 0 .3.1.3.3 0 .1-.1.4-.4.6-.2.2-.5.5-.9 1-.5.5-1 1-1.6 1.7l-2 2c-.7.7-1.4 1.3-2 1.9-.7.6-1.2 1.1-1.8 1.5-.5.4-1 .6-1.3.7-.3 0-.5-.1-.7-.3-.2-.2-.4-.5-.6-.9-.2-.4-.3-.9-.4-1.4-.1-.5-.1-1.1 0-1.8-.6.6-1.1 1.2-1.7 1.8l-1.6 1.6c-.5.5-1 .9-1.4 1.2-.4.3-.8.5-1 .5-.3.1-.5-.1-.8-.4-.3-.3-.5-.7-.7-1.2s-.3-1.1-.3-1.8c-.1-.7.1-1.4.3-2.2.1-.6.5-1.4 1-2.4.5-1.1 1.1-2.2 1.8-3.5.7-1.3 1.4-2.6 2.3-3.9.8-1.3 1.6-2.5 2.4-3.6.8-1.1 1.5-2 2.2-2.7.7-.7 1.2-1 1.6-1.1.5 0 .9.1 1.2.4.3.2.6.6.8.9.2.4.3.8.4 1.2.1.5 0 .8-.1 1.2-.2.4-.5.9-.9 1.5-.4.5-1 1.1-1.6 1.7s-1.2 1.2-2 1.8c-.7.6-1.4 1.2-2 1.8-.7.5-1.2 1-1.8 1.5-.5.4-1 .8-1.3 1-.4.8-.8 1.5-1.2 2.2-.4.7-.7 1.3-.9 1.9-.3.6-.4 1.1-.5 1.5-.1.5-.1.8-.1 1 .1.3.3.3.8.1.5-.2 1-.6 1.7-1.1.7-.5 1.4-1.1 2.2-1.8.8-.7 1.5-1.4 2.3-2.1.4-.8.9-1.7 1.4-2.8.6-1 1.2-2.2 2-3.3.7-1.2 1.4-2.3 2.2-3.4.8-1.1 1.5-2.2 2.2-3 .7-.9 1.4-1.6 2-2.2.6-.5 1-.8 1.4-.9.5 0 .9.2 1.2.5.3.3.6.7.9 1.1.2.5.3.9.4 1.4.1.5.1.9-.1 1.3-.1.5-.5 1-1 1.6-.5.6-1.2 1.3-1.9 2s-1.5 1.4-2.4 2c-.8.7-1.6 1.3-2.3 1.9-.7.6-1.4 1.1-1.9 1.5-.5.4-.9.7-1 .9l-.3.3c-.7 1.2-1.3 2.3-1.7 3.3-.9.9-1.1 1.6-.9 2zm11.5-17.2c-.1-.1-.5 0-1 .5s-1.2 1.1-1.9 2-1.5 1.9-2.4 3c-.8 1.2-1.6 2.3-2.4 3.5.9-.9 1.9-1.8 2.9-2.8l2.7-2.7c.8-.9 1.4-1.6 1.8-2.2.4-.7.6-1.1.3-1.3zm-8.3.2c-.1-.1-.3.1-.7.5-.4.4-.9 1-1.4 1.7-.6.7-1.2 1.6-1.9 2.6s-1.4 2-2 3.1c.8-.9 1.6-1.7 2.4-2.6.8-.9 1.5-1.6 2.1-2.4.6-.7 1-1.4 1.4-1.9.2-.5.3-.8.1-1z"/><path id="_x33__1_" class="st1" d="M170.7 174c.2.3.6.3 1.2.2.6-.1 1.2-.3 1.9-.7.7-.3 1.5-.7 2.3-1.2.8-.5 1.6-1 2.4-1.6.8-.5 1.5-1.1 2.2-1.6.7-.5 1.2-1 1.6-1.4.3-.3.7-.6 1-.7.3-.2.5-.3.7-.2.2 0 .3.1.3.3 0 .2-.1.4-.5.7-1 1-2 2-3.1 3s-2.2 1.9-3.3 2.8c-1.1.9-2.1 1.5-3.1 2.1-1 .5-1.8.8-2.5.8-.3 0-.7-.1-1.2-.3-.4-.1-.8-.4-1.1-.7-.3-.3-.7-.8-.9-1.3-.2-.5-.3-1.2-.3-1.9 0-.5.2-1.1.6-1.8.4-.7.9-1.5 1.6-2.4.6-.8 1.4-1.6 2.2-2.4s1.6-1.6 2.4-2.2c.8-.7 1.5-1.2 2.2-1.6.7-.4 1.2-.6 1.7-.6.1 0 .4 0 .7.1.3.1.6.3.9.5.3.2.5.5.7.9.2.4.2.9.2 1.4-.1.6-.3 1.2-.8 1.8-.4.6-.9 1.2-1.5 1.8-.6.6-1.2 1.1-1.8 1.6-.6.5-1.1.8-1.5 1-.7.4-1.4.6-2.1.4-.7-.2-1.2-.5-1.6-.9-.6.9-1.1 1.8-1.4 2.5-.4.7-.4 1.3-.1 1.6zm8.1-10.2c-.2-.1-.5-.1-1 .2-.5.3-1 .6-1.6 1.1s-1.2 1.1-1.8 1.7l-1.8 2.1c.4.2.8.2 1.3 0 .5-.1 1-.4 1.5-.8.5-.3 1-.7 1.4-1.2.5-.5.9-.9 1.2-1.4.3-.4.6-.8.7-1.2.2-.2.2-.4.1-.5z"/><path id="_x34__1_" class="st1" d="M186.2 161.5c.1-.2.3-.3.6-.2.3.1.6.1.9.3.3.2.5.4.7.6.2.3.2.5.1.8-.3.6-.7 1.2-1.1 2-.5.7-1 1.5-1.6 2.3-.6.8-1.1 1.6-1.7 2.4-.6.8-1.1 1.5-1.5 2.2-.4.7-.8 1.2-1 1.7-.2.5-.3.8-.2.9.2.3.8.3 1.5-.1.8-.5 1.7-1.2 2.7-2.2 1-1 2-2.2 3.1-3.6s1.9-2.9 2.6-4.4c-.2-.3-.3-.6-.3-1s.1-.8.2-1.1c.1-.3.3-.7.6-.9.3-.3.6-.5.9-.5.1-.1.3-.1.5 0s.5.2.7.4c.2.2.4.4.5.6.1.2.2.5.2.7v.6c0 .2-.1.4-.1.6.8 0 1.6-.1 2.2-.1.7-.1 1.2-.2 1.7-.2.5-.1.9-.2 1.2-.3l.9-.3c.3-.1.5-.2.7-.2.2-.1.3 0 .4.1.1.1 0 .2-.1.4s-.4.5-.9.8c-.3.3-.8.5-1.3.7-.5.2-1.1.4-1.7.5-.6.2-1.2.3-1.9.3-.6.1-1.2.1-1.8.1-.5 1.2-1.2 2.4-2.1 3.6-.9 1.3-1.8 2.5-2.9 3.5-1 1.1-2 2-3.1 2.8-1 .7-1.8 1.2-2.6 1.3-.6.1-1.1 0-1.6-.1s-.9-.3-1.3-.6c-.4-.2-.7-.5-.9-.8-.2-.3-.3-.5-.3-.7 0-.4.1-.9.4-1.5.3-.6.6-1.3 1-2.1s.9-1.6 1.4-2.5c.5-.9 1.1-1.7 1.6-2.5s1-1.6 1.5-2.3c.5-.9.9-1.6 1.2-2z"/><path id="_x35__1_" class="st1" d="M207 166.4c-.7 1-1.3 2-1.8 2.8-.6.9-1 1.5-1.3 2.1-.4.6-.6 1-.7 1.4-.1.3-.1.6 0 .6.2.1.5-.1 1-.5.5-.5 1.1-1 1.8-1.6.7-.6 1.3-1.3 2-1.9l1.6-1.6c.3-.3.7-.6 1-.8.3-.2.6-.3.9-.3.2 0 .3.1.3.2 0 .2-.2.5-.6.9-.5.6-1.2 1.3-2 2.2-.8.9-1.5 1.8-2.3 2.7-.7.9-1.4 1.7-2 2.4-.6.7-1.1 1.1-1.3 1.1-.4.1-.7.1-1 0-.3-.1-.6-.3-.8-.6-.2-.3-.4-.6-.5-.9-.1-.3-.1-.7-.1-1.1 0-.3.1-.7.3-1.1l.6-1.2c.2-.4.4-.8.6-1.1.2-.4.4-.7.5-.9-.1.2-.3.5-.6.9s-.7.9-1.2 1.4c-.5.5-1 1.1-1.5 1.6-.5.6-1.1 1.1-1.6 1.5-.6.5-1.1.9-1.6 1.1-.5.3-.9.5-1.3.5s-.8-.2-1.1-.5c-.3-.3-.7-.7-.9-1.1-.2-.5-.4-.9-.5-1.5-.1-.5-.1-1 .1-1.4.1-.5.5-1 1-1.8s1.2-1.6 1.9-2.5c.7-.9 1.5-1.8 2.4-2.7.9-.9 1.7-1.7 2.6-2.4.9-.7 1.6-1.2 2.4-1.6s1.3-.5 1.8-.5c.2.1.4.2.6.5l.6.9c.2.4.3.8.3 1.2.1.5 0 .9-.2 1.4.3.2.6.5.8.9 0 .7 0 1-.2 1.3zm-2.1-3.2c-.3-.1-.8 0-1.4.3-.7.4-1.4.9-2.2 1.6-.8.7-1.6 1.5-2.4 2.4-.9.9-1.6 1.7-2.2 2.6-.6.8-1.1 1.5-1.4 2.2-.4.7-.4 1.1-.2 1.3.2.2.6.1 1.2-.2.7-.4 1.4-.9 2.2-1.7.9-.8 1.8-1.7 2.8-2.7 1-1 2-2.2 2.9-3.3.3-.6.5-1.2.7-1.6.2-.6.2-.9 0-.9z"/><path id="_x36__1_" class="st1" d="M230.9 166.4c-.7 1-1.3 2-1.8 2.8-.5.9-1 1.5-1.3 2.1-.3.6-.6 1-.7 1.4-.1.3-.1.6 0 .6.2.1.5-.1 1.1-.5.5-.5 1.1-1 1.8-1.6.7-.6 1.3-1.3 2-1.9l1.6-1.6c.3-.3.7-.6 1-.8.4-.2.7-.3.9-.3s.3.1.3.2c0 .2-.2.5-.6.9-.5.6-1.2 1.3-2 2.2-.8.9-1.5 1.8-2.3 2.7-.7.9-1.4 1.7-2 2.4-.6.7-1.1 1.1-1.3 1.1-.4.1-.7.1-1 0-.3-.1-.6-.3-.8-.6-.2-.3-.4-.6-.5-.9-.1-.3-.1-.7-.1-1.1 0-.3.1-.7.3-1.1l.6-1.2c.2-.4.4-.8.6-1.1.2-.4.3-.7.5-.9-.1.2-.3.5-.6.9s-.7.9-1.2 1.4c-.5.5-.9 1.1-1.5 1.6-.5.6-1.1 1.1-1.6 1.5-.5.5-1.1.9-1.6 1.1-.5.3-.9.5-1.2.5-.4 0-.8-.2-1.1-.5-.4-.3-.7-.7-.9-1.1-.2-.5-.4-.9-.5-1.5-.1-.5-.1-1 0-1.4.1-.5.5-1 1-1.8s1.2-1.6 1.9-2.5c.7-.9 1.6-1.8 2.4-2.7.9-.9 1.7-1.7 2.6-2.4.9-.7 1.6-1.2 2.4-1.6.7-.4 1.3-.5 1.8-.5.2.1.4.2.6.5l.6.9c.1.4.3.8.3 1.2.1.5 0 .9-.2 1.4.3.2.6.5.8.9-.1.7-.1 1-.3 1.3zm-2-3.2c-.3-.1-.8 0-1.4.3-.6.4-1.3.9-2.1 1.6-.8.7-1.6 1.5-2.5 2.4-.8.9-1.6 1.7-2.2 2.6-.7.8-1.1 1.5-1.5 2.2-.3.7-.4 1.1-.2 1.3.2.2.6.1 1.2-.2.6-.4 1.4-.9 2.2-1.7.9-.8 1.8-1.7 2.8-2.7 1-1 2-2.2 2.9-3.3.3-.6.6-1.2.7-1.6.2-.6.2-.9.1-.9z"/><path id="_x37__1_" class="st1" d="M233.5 173.3c.1.3.4.3 1 0s1.3-.7 2.2-1.3c.9-.6 1.7-1.3 2.7-2 .9-.8 1.8-1.5 2.5-2.3.3-.3.7-.6 1-.7.3-.1.5-.2.7-.2.2 0 .3.1.3.3 0 .1-.1.4-.4.6-.2.2-.5.5-.9 1-.5.5-1 1-1.6 1.7l-2 2c-.7.7-1.4 1.3-2 1.9-.7.6-1.2 1.1-1.8 1.5-.5.4-1 .6-1.3.7-.3.1-.5-.1-.8-.4-.3-.3-.5-.7-.7-1.2-.2-.5-.3-1.1-.3-1.8-.1-.7.1-1.4.3-2.2.2-.5.5-1.3 1-2.4.5-1 1.1-2.2 1.8-3.4.7-1.2 1.5-2.5 2.3-3.8.9-1.3 1.7-2.4 2.5-3.5.8-1 1.6-1.9 2.2-2.6.7-.7 1.2-1 1.6-1 .4 0 .8.1 1.2.5.4.3.7.7.9 1.1.2.5.3.9.4 1.4.1.5 0 .9-.1 1.2-.2.5-.5 1-1 1.6-.5.6-1.1 1.2-1.8 1.9-.7.6-1.5 1.3-2.2 1.9-.8.6-1.6 1.2-2.3 1.8-.7.5-1.3 1-1.8 1.4-.5.4-.9.7-1 .8l-.3.3c-.7 1.2-1.3 2.3-1.7 3.3-.6.8-.7 1.5-.6 1.9zm11.2-16.7c-.1-.1-.5 0-1 .5s-1.1 1.1-1.8 1.9c-.7.9-1.4 1.8-2.2 2.9-.8 1.1-1.6 2.2-2.3 3.3.9-.8 1.8-1.7 2.8-2.6 1-.9 1.8-1.8 2.6-2.6.7-.8 1.3-1.5 1.7-2.1.3-.7.4-1.1.2-1.3z"/><path id="_x38__1_" class="st1" d="M271.8 162.4c.2-.3.6-.7 1.2-1.1.5-.4 1.1-.8 1.8-1.2.7-.4 1.3-.8 2-1.1.7-.4 1.2-.8 1.7-1.1.5-.3.8-.7 1-1 .2-.3.2-.6 0-.9-.4-.5-1.1-.7-2.1-.6-1 .1-2.2.4-3.6.9-1.2.4-2.5 1-3.8 1.8-1.3.7-2.6 1.6-3.9 2.5-1.3 1-2.5 2-3.7 3.1s-2.2 2.2-3.2 3.3c-1 1.1-1.8 2.3-2.4 3.4-.7 1.1-1.1 2.2-1.3 3.2-.2 1-.2 1.9.1 2.7.3.8.9 1.5 1.8 2 .6.3 1.2.5 2 .5s1.6-.1 2.5-.3c.9-.2 1.8-.5 2.6-.9.9-.4 1.7-.8 2.4-1.2.7-.4 1.3-.9 1.8-1.3.5-.5.8-.9.9-1.2.1-.4.3-.6.7-.6.3.1.6.3.9.5.3.3.5.7.6 1.1.1.5 0 .9-.3 1.3s-.8.8-1.5 1.3-1.5 1-2.4 1.4c-.9.5-1.8.9-2.8 1.2-1 .3-1.9.5-2.7.5-1.3 0-2.6-.2-3.7-.5-1.2-.3-2.2-.8-3.1-1.3-.9-.6-1.6-1.3-2.2-2.2-.5-.9-.9-1.8-.9-2.8-.1-.8.1-1.8.7-3 .5-1.2 1.3-2.5 2.3-3.9 1-1.4 2.2-2.8 3.6-4.2 1.4-1.4 2.9-2.7 4.6-3.9 1.7-1.2 3.5-2.3 5.5-3.1 2-.9 4-1.4 6-1.8 1.4-.2 2.6-.2 3.5-.1.9.2 1.7.4 2.2.8.6.3.9.8 1.2 1.2.2.5.3.9.3 1.3-.1.4-.4.9-1.1 1.5-.7.6-1.5 1.2-2.5 1.9-.9.7-1.9 1.4-2.8 2.2-.9.7-1.6 1.4-2 2.1-.2.2-.4.3-.8.2s-.6-.3-.9-.6c-.3-.3-.5-.7-.6-1.1 0-.2.1-.6.4-.9z"/><path id="_x39_" class="st1" d="M285.1 167.7c.3-.3.6-.5.9-.6.3-.1.5-.2.7-.2.2 0 .3.1.3.2s-.1.3-.3.6c-.1.1-.4.4-.8.9s-.9 1-1.5 1.6c-.6.6-1.2 1.3-1.9 2s-1.4 1.4-2.1 2c-.7.6-1.3 1.1-1.8 1.5-.6.4-1 .6-1.3.6-.3 0-.7-.1-1-.3-.3-.2-.7-.4-.9-.7-.3-.3-.5-.7-.7-1-.2-.4-.3-.8-.3-1.3s.2-1 .5-1.8c.3-.7.7-1.5 1.2-2.3.5-.8 1-1.6 1.6-2.4.6-.8 1.1-1.6 1.7-2.2.5-.7 1-1.2 1.4-1.7.4-.5.7-.7.8-.8.2-.2.5-.2.9-.1.3.1.6.2.9.4.3.2.5.4.7.6.1.3.1.5-.1.7-.1.1-.4.5-.9 1s-1 1.2-1.6 1.9c-.6.7-1.3 1.5-1.9 2.4-.7.9-1.2 1.6-1.8 2.4-.5.8-.9 1.4-1.2 2-.3.6-.3.9-.1 1.1.1.1.4 0 .9-.2.5-.3 1-.6 1.6-1 .6-.4 1.2-.9 1.9-1.4.7-.5 1.4-1.1 2-1.6.6-.5 1.2-1 1.6-1.4.1-.4.4-.7.6-.9zm-1.6-7.9c-.2-.3-.3-.6-.2-.9.1-.4.2-.7.5-1 .2-.3.5-.6.9-.9.4-.3.7-.5 1.1-.6.4-.1.8-.2 1.1-.1.4.1.7.2 1 .6.3.3.4.7.3 1-.1.3-.2.7-.5 1-.3.3-.6.6-1 .8-.4.2-.8.4-1.2.5-.4.1-.8.1-1.2.1-.3-.1-.6-.2-.8-.5z"/><path id="_x31_0" class="st1" d="M289.7 160.8c.2-.1.4-.2.7-.1.3.1.5.1.8.3.3.1.4.3.6.5s.1.3 0 .5c-.3.3-.6.7-1 1.2s-.9 1.2-1.4 1.9c-.5.7-1.1 1.5-1.7 2.4-.6.9-1.1 1.7-1.7 2.6.2-.3.5-.6.9-1.1.4-.5.9-1 1.4-1.6.5-.6 1-1.2 1.6-1.8l1.7-1.7c.5-.5 1-.9 1.5-1.3.5-.3.8-.5 1.1-.6.4 0 .8.1 1.1.4.3.3.5.7.7 1.1.1.4.2.9.2 1.3 0 .5-.1.8-.3 1-.2.3-.6.7-1 1.2s-.9 1.1-1.4 1.7c-.5.6-1 1.3-1.5 2s-.9 1.3-1.3 1.9c-.3.6-.6 1-.7 1.4-.1.4-.1.6.2.6.3.1 1.3-.5 2.8-1.7 1.5-1.2 3.4-2.9 5.6-5.1.3-.3.7-.5.9-.7.3-.2.6-.2.8-.2.2 0 .3.1.3.3 0 .2-.1.4-.4.7-.7.6-1.3 1.3-2 2-.7.8-1.4 1.5-2.1 2.2-.7.7-1.4 1.4-2.1 2-.7.6-1.4 1.2-2 1.6-.6.4-1.2.7-1.8.9-.6.2-1.1.1-1.6-.1-.5-.3-.8-.7-.8-1.3 0-.7.2-1.4.5-2.3.4-.9.9-1.9 1.6-3 .7-1.1 1.5-2.2 2.4-3.3-.5.2-1 .6-1.6 1.1-.6.5-1.2 1.1-1.9 1.8-.6.7-1.3 1.4-1.9 2.2l-1.8 2.1c-.5.7-1 1.2-1.3 1.7-.3.5-.6.7-.7.8-.1.1-.3.2-.5.2-.2.1-.4.1-.6 0-.2 0-.4-.1-.5-.3-.2-.1-.3-.3-.4-.6 0-.1.1-.6.5-1.3.3-.7.8-1.6 1.4-2.7.5-1 1.2-2.2 1.9-3.3.7-1.2 1.4-2.3 2-3.3.7-1 1.2-1.9 1.8-2.7.5-.9.8-1.4 1-1.5z"/><path id="_x31_1" class="st1" d="M298.5 174c.2.3.6.3 1.2.2.6-.1 1.2-.3 1.9-.7.7-.3 1.5-.7 2.3-1.2.8-.5 1.6-1 2.4-1.6.8-.5 1.5-1.1 2.2-1.6.7-.5 1.2-1 1.6-1.4.3-.3.7-.6 1-.7.3-.2.5-.3.7-.2.2 0 .3.1.3.3 0 .2-.1.4-.5.7-1 1-2 2-3.1 3s-2.2 1.9-3.3 2.8c-1.1.9-2.1 1.5-3.1 2.1-1 .5-1.8.8-2.5.8-.3 0-.7-.1-1.2-.3-.4-.1-.8-.4-1.1-.7-.3-.3-.7-.8-.9-1.3-.2-.5-.3-1.2-.3-1.9 0-.5.2-1.1.6-1.8.4-.7.9-1.5 1.6-2.4.7-.8 1.4-1.6 2.2-2.4s1.6-1.6 2.4-2.2c.8-.7 1.5-1.2 2.2-1.6.7-.4 1.2-.6 1.7-.6.1 0 .4 0 .7.1.3.1.6.3.9.5.3.2.5.5.7.9.2.4.2.9.2 1.4-.1.6-.3 1.2-.8 1.8-.4.6-.9 1.2-1.5 1.8-.6.6-1.2 1.1-1.8 1.6-.6.5-1.1.8-1.5 1-.7.4-1.4.6-2.1.4s-1.2-.5-1.6-.9c-.6.9-1.1 1.8-1.4 2.5-.5.7-.4 1.3-.1 1.6zm8.1-10.2c-.2-.1-.5-.1-1 .2-.5.3-1 .6-1.6 1.1s-1.2 1.1-1.8 1.7l-1.8 2.1c.4.2.8.2 1.3 0 .5-.1 1-.4 1.5-.8.5-.3 1-.7 1.4-1.2.5-.5.9-.9 1.2-1.4.3-.4.6-.8.7-1.2.2-.2.2-.4.1-.5z"/><path id="_x31_2" class="st1" d="M311.5 172.4c.3 0 .5.1.8.2.3.2.5.3.6.6s.2.5.2.7c0 .3-.1.6-.3.9-.2.3-.5.5-.9.7-.4.2-.8.3-1.2.4-.4.1-.8.1-1.1 0-.3-.1-.5-.2-.6-.4-.1-.3-.1-.5 0-.9.1-.3.3-.7.6-1 .3-.3.6-.6.9-.8.4-.3.7-.4 1-.4zm13.7-15.3c-.1.1-.5.4-1 .9-.6.5-1.2 1.2-2 2l-2.6 2.6c-.9.9-1.8 1.8-2.6 2.7-.8.9-1.5 1.7-2.2 2.4-.6.7-1 1.3-1.2 1.6-.1.2-.3.3-.4.3s-.2-.1-.3-.2c-.1-.1-.2-.3-.2-.5v-.7c.1-.3.3-.8.7-1.4.4-.7.9-1.4 1.5-2.2.6-.8 1.2-1.6 1.9-2.5.7-.9 1.4-1.7 2.1-2.5.7-.8 1.3-1.5 1.9-2.2.6-.6 1-1.1 1.4-1.4.3-.2.6-.3 1.1-.3.5 0 .9 0 1.4.1.4.1.7.3.9.5.1.3 0 .5-.4.8z"/></g></g></svg>