<?xml version="1.0" encoding="utf-8"?>
<!-- Generator: Adobe Illustrator 21.0.0, SVG Export Plug-In . SVG Version: 6.00 Build 0)  -->
<svg version="1.1" id="Layer_1" xmlns="http://www.w3.org/2000/svg" xmlns:xlink="http://www.w3.org/1999/xlink" x="0px" y="0px"
	 viewBox="0 0 204 64.5" style="enable-background:new 0 0 204 64.5;" xml:space="preserve">
<style type="text/css">
	.st0{fill:none;}
	.st1{fill:#201E1E;}
	.st2{fill:#FFCC29;}
</style>
<g id="Capa_x0020_1">
	<g id="_1961683852160">
		<rect x="-93" y="-251" class="st0" width="389.25351" height="145.50235"/>
		<polygon class="st1" points="-73.80945,-233.87874 -89.4,-170.5811 278.31021,-159.8378 293.67398,-242.49606 		"/>
		<polygon class="st2" points="-73.80945,-233.87874 -87.72756,-177.35591 272.55588,-166.61261 286.07715,-242.32599 		"/>
		<path class="st1" d="M-30.94961-210.52126c-0.25512,1.84251-1.16221,3.40157-2.72126,4.70551
			c-1.55906,1.33228-3.28819,1.98425-5.1874,1.98425h-24.37795l-3.08977,21.48662h-10.45984l6.71811-46.88504h34.83779
			c1.89922,0,3.45827,0.68031,4.62047,1.98425c1.19055,1.30394,1.64409,2.89133,1.38898,4.70551L-30.94961-210.52126z
			 M-41.0126-213.15749l0.96378-6.74646h-20.89133l-0.96378,6.74646H-41.0126z"/>
		<path id="_x31_" class="st1" d="M11.93858-189.03465c-0.25512,1.81418-1.1622,3.40158-2.72126,4.70552
			c-1.55905,1.33228-3.28819,1.98425-5.1874,1.98425h-27.86456c-1.89921,0-3.45827-0.65198-4.62047-1.98425
			c-1.19055-1.30394-1.64409-2.89134-1.38898-4.70552l5.75433-40.19527h10.45984l-5.38583,37.5874H1.87558l5.38583-37.5874h10.4315
			L11.93858-189.03465z"/>
		<path id="_x32_" class="st1" d="M57.91653-189.03465c-0.25512,1.81418-1.19055,3.40158-2.74961,4.70552
			c-1.55906,1.33228-3.28819,1.98425-5.1874,1.98425H15.17007l6.71811-46.88504h34.80945c1.89921,0,3.45827,0.68031,4.62047,1.98425
			c1.19055,1.33228,1.64409,2.89133,1.38898,4.73386l-1.04882,7.37007c-0.25512,1.81418-1.19055,3.40158-2.72126,4.70552
			c-1.55906,1.33228-3.31654,1.98425-5.21575,1.98425c1.89921,0,3.45827,0.65196,4.64882,1.9559
			c1.1622,1.33228,1.61575,2.89134,1.36063,4.73386L57.91653-189.03465z M50.91495-213.15749l0.96378-6.74646H30.98739
			l-0.96378,6.74646H50.91495z M47.82519-191.64252l1.75748-12.18898H28.69133l-1.75748,12.18898H47.82519z"/>
		<path id="_x33_" class="st1" d="M99.44408-182.34488H68.0929c-1.89922,0-3.42992-0.65198-4.62047-1.98425
			c-1.19055-1.30394-1.6441-2.89134-1.38898-4.70552l5.75433-40.19527h10.45984l-5.38583,37.5874h27.86457L99.44408-182.34488z"/>
		<polygon id="_x34_" class="st1" points="114.07085,-182.34488 103.61101,-182.34488 110.32912,-229.22992 120.78896,-229.22992 		
			"/>
		<path id="_x35_" class="st1" d="M156.56219-182.34488h-31.35119c-1.89921,0-3.45827-0.65198-4.62047-1.98425
			c-1.19055-1.30394-1.6441-2.89134-1.38898-4.70552l4.79055-33.47716c0.28346-1.84253,1.19055-3.40158,2.7496-4.73386
			c1.55905-1.30394,3.28819-1.98425,5.18741-1.98425h31.35118l-1.33229,9.32597h-27.86456l-4.05354,28.26143h27.86456
			L156.56219-182.34488z"/>
		<polygon id="_x36_" class="st1" points="171.18896,-182.34488 160.72911,-182.34488 167.44722,-229.22992 177.90707,-229.22992 		
			"/>
		<polygon id="_x37_" class="st1" points="217.13857,-182.34488 206.70706,-182.34488 189.84093,-210.46457 185.81573,-182.34488 
			175.35588,-182.34488 182.07399,-229.22992 192.53384,-229.22992 209.39998,-201.13858 213.42517,-229.22992 
			223.85667,-229.22992 		"/>
		<path id="_x38_" class="st1" d="M259.62988-182.34488h-31.35117c-1.89922,0-3.42992-0.65198-4.62047-1.98425
			c-1.19055-1.30394-1.6441-2.89134-1.36063-4.70552l4.79054-33.47716c0.25513-1.84253,1.1622-3.40158,2.72127-4.73386
			c1.55905-1.30394,3.28818-1.98425,5.18739-1.98425h31.35117l-1.33228,9.32597h-27.86456l-0.96378,6.74646h27.86456
			l-1.33228,9.32599H234.8551l-1.75749,12.18898h27.86458L259.62988-182.34488z"/>
		<path class="st1" d="M-0.36379-137.21733c0.56693-0.3685,1.53071-0.76535,2.8063-1.19055s2.74961-0.85039,4.3937-1.27559
			s3.37323-0.85039,5.1874-1.27559c1.84252-0.39685,3.6-0.76535,5.24409-1.07716c1.67244-0.31181,3.1748-0.59528,4.50709-0.7937
			s2.35275-0.28346,3.00472-0.31181c0.25512,0,0.56693,0.05669,0.99212,0.19843c0.39685,0.14174,0.73701,0.28346,1.02047,0.48189
			c0.25512,0.17007,0.39685,0.3685,0.3685,0.53859c0,0.17007-0.31181,0.28346-0.90709,0.34015
			c-0.70866,0.02835-1.55905,0.14174-2.52283,0.31181s-2.0126,0.39685-3.14646,0.65196
			c-1.1622,0.22678-2.3811,0.51024-3.65669,0.8504c-1.27559,0.31181-2.60787,0.65196-3.94016,1.02046
			c0.28346,0.25513,0.51024,0.59528,0.68032,1.02048c0.17008,0.4252,0.17008,0.7937,0.02835,1.04883
			c-0.4252,0.76535-1.04882,1.70078-1.78583,2.80629c-0.76535,1.10551-1.55905,2.26772-2.43779,3.5433
			c-0.87874,1.24725-1.78583,2.55119-2.69291,3.85513c-0.90709,1.33228-1.75748,2.60787-2.55118,3.82677
			c-0.76535,1.2189-1.44567,2.35276-1.98425,3.37323c-0.56693,1.02047-0.93543,1.87086-1.10551,2.49449
			c-0.11339,0.48189-0.31181,0.65196-0.53858,0.56693c-0.22677-0.11339-0.48189-0.34016-0.70866-0.73701
			c-0.25512-0.36851-0.45354-0.82204-0.62362-1.33228c-0.19843-0.53858-0.25512-0.96378-0.22677-1.33228
			c0.02835-0.22678,0.28346-0.76536,0.82205-1.61575c0.53858-0.8504,1.2189-1.87087,2.0126-3.06142
			c0.82205-1.19055,1.72913-2.46615,2.72126-3.85513s1.95591-2.72125,2.89134-4.02519
			c0.96378-1.33229,1.81417-2.52284,2.60787-3.65669c0.76535-1.10551,1.36063-1.9559,1.75748-2.57953
			c-1.2189,0.34016-2.40945,0.70866-3.62835,1.10551c-1.19055,0.3685-2.32441,0.76535-3.40158,1.13385
			c-1.10551,0.39685-2.12598,0.76537-3.08976,1.13387s-1.81417,0.737-2.57953,1.10551
			c-0.31181,0.14172-0.51024,0.08504-0.59528-0.17009c-0.08504-0.28346-0.08504-0.62361-0.02835-1.02046
			c0.05669-0.4252,0.19843-0.82205,0.3685-1.2189C-0.90237-136.76379-0.6756-137.04726-0.36379-137.21733z"/>
		<path id="_x31__1_" class="st1" d="M14.37637-123.04411c0.22677,0.25512,0.59528,0.34016,1.1622,0.22678
			c0.56693-0.11339,1.19055-0.34016,1.89921-0.65197c0.73701-0.34016,1.50236-0.73701,2.32441-1.21889
			c0.82205-0.51024,1.61575-1.02048,2.40945-1.55906c0.76535-0.53858,1.50236-1.07716,2.15433-1.61575
			c0.68032-0.53858,1.2189-1.02047,1.64409-1.44567c0.34016-0.34016,0.68032-0.59528,0.99213-0.73701
			c0.28346-0.17007,0.53858-0.25511,0.73701-0.22676c0.17008,0,0.25512,0.11339,0.25512,0.28346s-0.14173,0.39685-0.4252,0.68031
			c-0.96378,0.96378-2.0126,1.9559-3.08976,2.97638c-1.10551,1.02047-2.18268,1.92756-3.25984,2.77795
			c-1.07717,0.85039-2.09764,1.53071-3.08976,2.06929c-0.96378,0.51023-1.81417,0.7937-2.52283,0.7937
			c-0.3685,0-0.73701-0.08504-1.1622-0.25512c-0.4252-0.14173-0.7937-0.39685-1.13386-0.73701
			c-0.3685-0.34016-0.65197-0.76536-0.87874-1.30394c-0.22677-0.51024-0.3685-1.1622-0.3685-1.89921
			c0-0.4819,0.22677-1.10551,0.62362-1.84252s0.93543-1.53072,1.5874-2.35275c0.62362-0.7937,1.33228-1.61575,2.12598-2.43781
			c0.7937-0.82204,1.5874-1.55905,2.35276-2.21101c0.7937-0.65198,1.53071-1.19055,2.21102-1.5874
			c0.70866-0.39685,1.24724-0.59528,1.67244-0.59528c0.14173,0,0.3685,0.02835,0.65197,0.14172
			c0.28346,0.08505,0.56693,0.25513,0.82205,0.4819c0.28346,0.22676,0.51024,0.51022,0.68032,0.87874
			c0.19843,0.3685,0.25512,0.85039,0.17008,1.41731c-0.05669,0.56694-0.31181,1.16222-0.73701,1.81418
			c-0.4252,0.62363-0.90709,1.24724-1.50236,1.84251c-0.56693,0.59528-1.1622,1.13387-1.78583,1.61575
			c-0.59528,0.48189-1.10551,0.82204-1.53071,1.04882c-0.70866,0.42519-1.38898,0.56693-2.04095,0.39685
			c-0.65197-0.17008-1.19055-0.45354-1.5874-0.87875c-0.65197,0.93544-1.10551,1.75748-1.41732,2.52283
			C14.03621-123.8945,14.03621-123.35591,14.37637-123.04411z M22.48346-133.19214
			c-0.19842-0.11339-0.51023-0.05669-0.99212,0.19843c-0.45354,0.25513-0.96378,0.62363-1.53071,1.10551
			s-1.1622,1.07716-1.78583,1.72914c-0.62362,0.68031-1.2189,1.36063-1.75748,2.09763c0.36851,0.17008,0.7937,0.17008,1.27559,0
			c0.48189-0.14172,0.96378-0.39685,1.44567-0.76535c0.51024-0.34015,0.99213-0.737,1.44567-1.19055
			c0.45354-0.45354,0.85039-0.90709,1.19055-1.36063c0.31181-0.4252,0.56693-0.82205,0.68032-1.1622
			C22.59684-132.88033,22.59684-133.07875,22.48346-133.19214z"/>
		<path id="_x32__1_" class="st1" d="M43.23306-123.66772c0.08504,0.31181,0.39685,0.31181,0.99213,0.02834
			c0.59527-0.28346,1.33228-0.73701,2.18267-1.33228c0.8504-0.56693,1.72913-1.27559,2.66457-2.04094
			c0.93544-0.7937,1.75748-1.53072,2.49449-2.29607c0.31181-0.34016,0.65197-0.56693,0.93544-0.70866
			c0.31181-0.14172,0.56693-0.19843,0.76535-0.19843c0.17008,0.02835,0.25512,0.11339,0.25512,0.28346
			c0,0.14174-0.11338,0.36852-0.39685,0.62363c-0.17008,0.19843-0.48189,0.51024-0.93543,0.99213
			c-0.45354,0.48189-0.99213,1.04882-1.61575,1.67244c-0.62362,0.62362-1.27559,1.27559-1.95591,1.95591
			c-0.70866,0.68031-1.38898,1.30393-2.04095,1.89921c-0.65197,0.56693-1.24724,1.07716-1.81417,1.47401
			c-0.53858,0.36851-0.99213,0.59528-1.30394,0.65197c-0.25512,0.02835-0.48189-0.05669-0.73701-0.28346
			c-0.22677-0.19843-0.4252-0.51024-0.62362-0.90709c-0.17008-0.39685-0.31181-0.8504-0.39685-1.38898
			c-0.08504-0.53858-0.11339-1.10551-0.02835-1.75748c-0.56693,0.59528-1.13386,1.19055-1.70079,1.78583
			c-0.56693,0.59528-1.10551,1.13386-1.6441,1.5874c-0.51023,0.48189-0.96378,0.85039-1.38898,1.1622
			s-0.76535,0.48189-1.04882,0.53858c-0.25512,0.05669-0.53858-0.05669-0.82205-0.3685
			c-0.25512-0.28347-0.48189-0.70866-0.65197-1.2189c-0.17008-0.51023-0.28346-1.13386-0.31181-1.81417
			c-0.05669-0.68031,0.05669-1.44567,0.28347-2.21102c0.14173-0.56693,0.45354-1.36063,0.96378-2.40945
			c0.48189-1.07716,1.07716-2.23936,1.75748-3.4866c0.70866-1.2756,1.44567-2.55119,2.26772-3.88347
			c0.82204-1.33229,1.61575-2.52284,2.3811-3.60001c0.7937-1.10551,1.50237-1.98425,2.18268-2.66457
			c0.65197-0.70866,1.19055-1.04881,1.5874-1.07716c0.45354,0,0.85039,0.11339,1.19055,0.3685
			c0.34016,0.22678,0.62362,0.56694,0.82204,0.93544c0.22677,0.39685,0.34016,0.7937,0.4252,1.24724
			c0.05669,0.45355,0.02835,0.82205-0.05669,1.19055c-0.17008,0.4252-0.45354,0.93544-0.87874,1.50237
			c-0.4252,0.53859-0.96378,1.13387-1.55906,1.72914s-1.24724,1.21889-1.95591,1.84251
			c-0.68031,0.62363-1.36063,1.19055-2.0126,1.75748c-0.65197,0.53859-1.24725,1.04883-1.78583,1.47401
			c-0.53858,0.4252-0.96378,0.76535-1.27559,1.02048c-0.42519,0.76535-0.82204,1.50237-1.19055,2.21102
			c-0.3685,0.70866-0.68032,1.33228-0.93543,1.92756c-0.25512,0.56693-0.4252,1.07716-0.53859,1.53071
			c-0.11338,0.45354-0.14173,0.76536-0.11338,0.99213c0.05669,0.25512,0.31181,0.25512,0.76535,0.05669
			c0.45354-0.22678,1.02047-0.59528,1.70079-1.10551c0.65197-0.51023,1.38898-1.10551,2.15433-1.81417
			c0.7937-0.70866,1.53071-1.38898,2.26772-2.09764c0.39685-0.79369,0.87874-1.72913,1.44567-2.8063
			c0.59528-1.04881,1.24724-2.18268,1.98425-3.31653c0.70866-1.16222,1.44567-2.29607,2.21103-3.40158
			c0.76535-1.13387,1.50236-2.15433,2.21102-3.03307c0.70866-0.87874,1.36063-1.61575,1.95591-2.15434
			c0.56693-0.53857,1.04882-0.82204,1.38898-0.85039c0.45354,0,0.8504,0.17007,1.2189,0.48189
			c0.34016,0.28346,0.62362,0.68031,0.85039,1.13387c0.19843,0.45354,0.34016,0.93542,0.39685,1.41731
			c0.05669,0.51024,0.05669,0.93544-0.05669,1.2756c-0.14174,0.45354-0.48189,1.02046-1.02047,1.61574
			c-0.53858,0.62363-1.1622,1.27559-1.87086,1.98425c-0.73701,0.68031-1.53071,1.36063-2.35276,2.04094
			c-0.82205,0.68033-1.5874,1.30394-2.32441,1.87088c-0.73701,0.56693-1.36063,1.07716-1.89921,1.47401
			c-0.53858,0.42519-0.87874,0.70865-1.02047,0.85039l-0.28347,0.28346c-0.70866,1.2189-1.30394,2.32441-1.70079,3.28819
			C43.26141-124.77324,43.11967-124.09292,43.23306-123.66772z M54.79842-140.93071
			c-0.14174-0.14174-0.48189,0.02834-1.02047,0.48189c-0.53858,0.48189-1.1622,1.13385-1.87086,2.01259
			c-0.70866,0.87874-1.50237,1.89922-2.35276,3.03308c-0.82205,1.1622-1.61575,2.3244-2.3811,3.51495
			c0.90709-0.87874,1.87087-1.81418,2.86299-2.8063c0.99213-0.96378,1.87087-1.8992,2.66457-2.7496
			c0.76535-0.87874,1.38897-1.61574,1.78582-2.23936C54.9118-140.3071,55.02519-140.73228,54.79842-140.93071z M46.4929-140.70395
			c-0.08504-0.11339-0.34016,0.0567-0.70866,0.45355c-0.39685,0.42519-0.87874,0.99213-1.44567,1.72913
			c-0.56693,0.73701-1.19055,1.61575-1.87086,2.60788c-0.68032,0.96378-1.36063,2.01259-2.04095,3.06142
			c0.7937-0.8504,1.61575-1.67244,2.40945-2.55118c0.76535-0.8504,1.47401-1.6441,2.06929-2.3811
			c0.59528-0.73701,1.04882-1.36063,1.36063-1.87086C46.54959-140.19371,46.63464-140.53386,46.4929-140.70395z"/>
		<path id="_x33__1_" class="st1" d="M51.56692-123.04411c0.22677,0.25512,0.62362,0.34016,1.1622,0.22678
			c0.56693-0.11339,1.19055-0.34016,1.92756-0.65197c0.70866-0.34016,1.47402-0.73701,2.29607-1.21889
			c0.82204-0.51024,1.64409-1.02048,2.40945-1.55906c0.7937-0.53858,1.50236-1.07716,2.18268-1.61575
			c0.65197-0.53858,1.19055-1.02047,1.61575-1.44567c0.34016-0.34016,0.68032-0.59528,0.99213-0.73701
			c0.31181-0.17007,0.53858-0.25511,0.73701-0.22676c0.17007,0,0.28346,0.11339,0.28346,0.28346s-0.14173,0.39685-0.45354,0.68031
			c-0.96378,0.96378-1.98425,1.9559-3.08976,2.97638c-1.10551,1.02047-2.18267,1.92756-3.25984,2.77795
			c-1.07716,0.85039-2.09764,1.53071-3.08976,2.06929c-0.96378,0.51023-1.81417,0.7937-2.52283,0.7937
			c-0.34016,0-0.73701-0.08504-1.1622-0.25512c-0.39685-0.14173-0.7937-0.39685-1.13386-0.73701s-0.65197-0.76536-0.87874-1.30394
			c-0.22677-0.51024-0.34016-1.1622-0.34016-1.89921c0-0.4819,0.19843-1.10551,0.59528-1.84252
			c0.4252-0.73701,0.93544-1.53072,1.5874-2.35275c0.62362-0.7937,1.36063-1.61575,2.15433-2.43781
			c0.7937-0.82204,1.55906-1.55905,2.35276-2.21101c0.76535-0.65198,1.50236-1.19055,2.18267-1.5874
			c0.70866-0.39685,1.24725-0.59528,1.67244-0.59528c0.14173,0,0.3685,0.02835,0.65197,0.14172
			c0.28347,0.08505,0.56693,0.25513,0.8504,0.4819c0.25512,0.22676,0.48189,0.51022,0.68032,0.87874
			c0.17008,0.3685,0.22677,0.85039,0.17008,1.41731c-0.08504,0.56694-0.34016,1.16222-0.76535,1.81418
			c-0.39685,0.62363-0.90709,1.24724-1.50237,1.84251c-0.56693,0.59528-1.1622,1.13387-1.75748,1.61575
			c-0.62362,0.48189-1.13386,0.82204-1.53071,1.04882c-0.73701,0.42519-1.41732,0.56693-2.06929,0.39685
			c-0.65197-0.17008-1.19055-0.45354-1.5874-0.87875c-0.62362,0.93544-1.10551,1.75748-1.38897,2.52283
			C51.22676-123.8945,51.25511-123.35591,51.56692-123.04411z M59.674-133.19214c-0.19843-0.11339-0.51023-0.05669-0.96378,0.19843
			c-0.45354,0.25513-0.99212,0.62363-1.55906,1.10551c-0.56693,0.48189-1.1622,1.07716-1.78582,1.72914
			c-0.62362,0.68031-1.2189,1.36063-1.75748,2.09763c0.3685,0.17008,0.7937,0.17008,1.27559,0
			c0.48189-0.14172,0.96378-0.39685,1.47402-0.76535c0.48189-0.34015,0.96378-0.737,1.41732-1.19055
			c0.45354-0.45354,0.8504-0.90709,1.19055-1.36063c0.34016-0.4252,0.56693-0.82205,0.70866-1.1622
			C59.78739-132.88033,59.81574-133.07875,59.674-133.19214z"/>
		<path id="_x34__1_" class="st1" d="M67.04408-135.54489c0.11339-0.17007,0.31181-0.25511,0.59528-0.22678
			c0.31181,0.0567,0.59528,0.14174,0.8504,0.34016c0.28346,0.17007,0.51024,0.3685,0.70866,0.62363
			c0.17007,0.28346,0.19842,0.53857,0.08504,0.82204c-0.28346,0.56694-0.65197,1.24725-1.13386,1.98425
			c-0.4819,0.73701-0.99213,1.53072-1.55906,2.32442c-0.56693,0.82204-1.13386,1.64409-1.70078,2.43779
			c-0.59528,0.7937-1.07717,1.53071-1.53071,2.21102c-0.42519,0.65197-0.76535,1.2189-1.02047,1.67245
			c-0.22677,0.45354-0.31181,0.76535-0.19843,0.87874c0.22677,0.34016,0.76535,0.28346,1.53071-0.14173
			c0.7937-0.45354,1.70079-1.16221,2.69291-2.15434c1.02047-0.99213,2.0126-2.18268,3.06142-3.57166
			s1.92756-2.86299,2.63622-4.42204c-0.19843-0.28346-0.28347-0.62363-0.28347-1.02048s0.08504-0.76535,0.22678-1.13385
			c0.14173-0.34016,0.34016-0.65198,0.59528-0.93544c0.25512-0.25511,0.56693-0.45354,0.90708-0.51024
			c0.14173-0.08504,0.34016-0.08504,0.53858,0.02835c0.22678,0.08504,0.45354,0.19843,0.65197,0.39685
			c0.19843,0.17007,0.36851,0.39685,0.51024,0.59528c0.14173,0.22678,0.22677,0.45355,0.22677,0.68031
			c0,0.19843-0.02834,0.39685-0.02834,0.56693c-0.02835,0.19843-0.08504,0.39685-0.11339,0.62363
			c0.82205-0.02835,1.55906-0.08504,2.18268-0.14172c0.65197-0.08505,1.19055-0.17009,1.67244-0.22678
			c0.45354-0.08504,0.8504-0.17007,1.19055-0.25513c0.34016-0.11337,0.62363-0.22676,0.90709-0.34015
			c0.25512-0.11339,0.48189-0.17007,0.68031-0.19843c0.22677-0.0567,0.34016-0.02835,0.42519,0.05669
			c0.05669,0.0567,0.02835,0.19843-0.11338,0.36852c-0.11339,0.19843-0.39685,0.45354-0.8504,0.76535
			c-0.34016,0.25511-0.76536,0.51024-1.30394,0.70866s-1.10551,0.3685-1.72913,0.51024
			c-0.62362,0.17007-1.24724,0.28346-1.89921,0.34015c-0.62363,0.08504-1.24725,0.08504-1.81418,0.08504
			c-0.51023,1.1622-1.21889,2.35275-2.09763,3.62836c-0.90709,1.27558-1.84252,2.46613-2.86299,3.5433
			c-1.04882,1.10551-2.04095,2.0126-3.06142,2.77795c-0.99213,0.73701-1.84252,1.16221-2.55119,1.27559
			c-0.56693,0.05669-1.10551,0.02835-1.5874-0.08504c-0.48189-0.11339-0.90709-0.31181-1.27559-0.56693
			c-0.3685-0.22678-0.65197-0.51024-0.87874-0.7937c-0.19843-0.28347-0.31181-0.53858-0.31181-0.73701
			c0-0.36851,0.14173-0.8504,0.39685-1.50237c0.28346-0.62362,0.62362-1.33228,1.04882-2.12598
			c0.4252-0.76536,0.90709-1.5874,1.41732-2.46615c0.53858-0.85039,1.07716-1.70078,1.5874-2.52283
			c0.51024-0.82205,1.02048-1.61575,1.47401-2.32442C66.42046-134.43938,66.78896-135.063,67.04408-135.54489z"/>
		<path id="_x35__1_" class="st1" d="M87.85038-130.58426c-0.68031,1.02048-1.27559,1.9559-1.81417,2.77795
			c-0.56693,0.85039-0.99213,1.53071-1.33228,2.12598c-0.36851,0.56693-0.59528,1.04881-0.70866,1.38898
			c-0.14173,0.34016-0.11339,0.56693,0.02835,0.62362c0.17007,0.11339,0.53858-0.05669,1.04881-0.48189
			c0.53858-0.45354,1.13386-0.96378,1.81418-1.61575c0.65196-0.62362,1.30393-1.27559,1.9559-1.92756
			c0.65197-0.68031,1.16221-1.21889,1.55906-1.61575c0.31181-0.31181,0.65196-0.56693,0.99212-0.76535
			c0.34016-0.19843,0.62363-0.31181,0.8504-0.31181c0.19843,0,0.28347,0.05669,0.28347,0.22678
			c0,0.19843-0.19843,0.48189-0.56693,0.85039c-0.53858,0.56693-1.21889,1.27559-1.98425,2.21102
			c-0.76535,0.90709-1.50236,1.81418-2.26772,2.72126c-0.73701,0.87874-1.44567,1.67244-2.04095,2.35276
			c-0.62362,0.68031-1.07716,1.07716-1.33228,1.13386c-0.39685,0.14173-0.73701,0.14173-1.02047,0
			c-0.31181-0.11339-0.59528-0.31181-0.82204-0.56693c-0.19843-0.25512-0.36851-0.56693-0.4819-0.93543
			c-0.08504-0.34016-0.11338-0.70866-0.05669-1.07716c0.02835-0.31181,0.11339-0.65197,0.28347-1.07716
			c0.17007-0.39685,0.3685-0.7937,0.59528-1.2189c0.22677-0.39685,0.42519-0.7937,0.62362-1.13386
			c0.19843-0.3685,0.36851-0.65197,0.48189-0.8504c-0.08504,0.17008-0.28346,0.4819-0.62362,0.87875
			c-0.31181,0.39685-0.70866,0.87874-1.16221,1.38898c-0.45354,0.51023-0.96378,1.07716-1.50236,1.64409
			c-0.53858,0.56693-1.07716,1.07717-1.61575,1.53071c-0.56693,0.45354-1.07717,0.8504-1.55906,1.13386
			c-0.51024,0.31181-0.93543,0.4819-1.27559,0.4819c-0.39685,0-0.76536-0.17008-1.13386-0.4819
			c-0.34016-0.28346-0.65197-0.68031-0.87874-1.13386c-0.22678-0.45354-0.39685-0.93543-0.51024-1.47401
			c-0.08504-0.51023-0.08504-0.96378,0.05669-1.36063c0.11338-0.45354,0.45354-1.04882,0.96378-1.81418
			c0.53858-0.76535,1.16221-1.5874,1.92756-2.46614c0.73701-0.87874,1.53071-1.75748,2.40945-2.66457
			c0.87874-0.87874,1.72913-1.67244,2.57952-2.3811c0.8504-0.70866,1.61575-1.24724,2.35276-1.64409
			s1.30393-0.53859,1.75748-0.45355c0.17008,0.0567,0.36851,0.19843,0.59528,0.45355
			c0.22678,0.25511,0.4252,0.56693,0.56693,0.93542c0.17007,0.36852,0.28346,0.7937,0.31181,1.24725
			c0.05669,0.48189,0,0.93542-0.17007,1.36063c0.34016,0.19843,0.62362,0.51024,0.82204,0.93544
			C88.04881-131.23622,88.04881-130.89607,87.85038-130.58426z M85.80943-133.8441
			c-0.31181-0.14174-0.76535-0.02835-1.41732,0.34015c-0.65197,0.39685-1.36063,0.93544-2.15433,1.6441
			c-0.7937,0.68031-1.5874,1.47401-2.4378,2.35275s-1.5874,1.72913-2.21102,2.55118
			c-0.62363,0.82205-1.10551,1.53071-1.44567,2.18268c-0.36851,0.65197-0.42519,1.07716-0.22677,1.30394
			c0.17007,0.22677,0.56693,0.14173,1.19055-0.19843c0.65196-0.36851,1.38897-0.93543,2.23936-1.70079
			c0.87874-0.76535,1.81417-1.67244,2.8063-2.72125c0.99213-1.04883,1.98425-2.15434,2.91969-3.31654
			c0.31181-0.62361,0.53858-1.1622,0.70866-1.61574C85.95117-133.4756,85.95117-133.75906,85.80943-133.8441z"/>
		<path id="_x36__1_" class="st1" d="M111.77479-130.58426c-0.68031,1.02048-1.27559,1.9559-1.81417,2.77795
			c-0.53858,0.85039-0.99213,1.53071-1.33228,2.12598c-0.34016,0.56693-0.59528,1.04881-0.70866,1.38898
			c-0.11339,0.34016-0.11339,0.56693,0.02835,0.62362c0.17007,0.11339,0.53858-0.05669,1.07716-0.48189
			c0.51023-0.45354,1.13386-0.96378,1.78583-1.61575c0.68031-0.62362,1.33228-1.27559,1.9559-1.92756
			c0.65197-0.68031,1.16221-1.21889,1.55906-1.61575c0.34016-0.31181,0.65196-0.56693,0.99212-0.76535
			c0.36851-0.19843,0.65197-0.31181,0.8504-0.31181s0.31181,0.05669,0.28347,0.22678c0,0.19843-0.19843,0.48189-0.56693,0.85039
			c-0.53858,0.56693-1.19055,1.27559-1.9559,2.21102c-0.76536,0.90709-1.53071,1.81418-2.29607,2.72126
			c-0.73701,0.87874-1.41732,1.67244-2.04095,2.35276c-0.62362,0.68031-1.07716,1.07716-1.33228,1.13386
			c-0.3685,0.14173-0.70866,0.14173-1.02047,0c-0.31181-0.11339-0.56693-0.31181-0.7937-0.56693s-0.39685-0.56693-0.48189-0.93543
			c-0.11339-0.34016-0.14173-0.70866-0.08504-1.07716c0.02835-0.31181,0.14174-0.65197,0.31181-1.07716
			c0.17008-0.39685,0.36851-0.7937,0.59528-1.2189c0.19843-0.39685,0.42519-0.7937,0.62362-1.13386
			c0.19843-0.3685,0.34016-0.65197,0.4819-0.8504c-0.11339,0.17008-0.31181,0.4819-0.62363,0.87875
			c-0.34016,0.39685-0.70866,0.87874-1.19055,1.38898c-0.45354,0.51023-0.93543,1.07716-1.50236,1.64409
			c-0.53858,0.56693-1.07716,1.07717-1.61575,1.53071c-0.53858,0.45354-1.07716,0.8504-1.55905,1.13386
			c-0.48189,0.31181-0.90709,0.4819-1.24725,0.4819c-0.39685,0-0.7937-0.17008-1.13386-0.4819
			c-0.3685-0.28346-0.65197-0.68031-0.90708-1.13386c-0.22678-0.45354-0.39685-0.93543-0.4819-1.47401
			c-0.11338-0.51023-0.08504-0.96378,0.02835-1.36063c0.11338-0.45354,0.45354-1.04882,0.99213-1.81418
			c0.51023-0.76535,1.1622-1.5874,1.89921-2.46614s1.55906-1.75748,2.4378-2.66457c0.87874-0.87874,1.72913-1.67244,2.55118-2.3811
			c0.8504-0.70866,1.6441-1.24724,2.35276-1.64409c0.73701-0.39685,1.33228-0.53859,1.78583-0.45355
			c0.17007,0.0567,0.3685,0.19843,0.56693,0.45355c0.22678,0.25511,0.4252,0.56693,0.59528,0.93542
			c0.14173,0.36852,0.25512,0.7937,0.31181,1.24725c0.05669,0.48189-0.02835,0.93542-0.19843,1.36063
			c0.34016,0.19843,0.62362,0.51024,0.82204,0.93544C111.97321-131.23622,111.97321-130.89607,111.77479-130.58426z
			 M109.73384-133.8441c-0.28346-0.14174-0.76535-0.02835-1.41732,0.34015c-0.62362,0.39685-1.33228,0.93544-2.12598,1.6441
			c-0.7937,0.68031-1.61575,1.47401-2.46614,2.35275c-0.82204,0.87874-1.55905,1.72913-2.18268,2.55118
			c-0.65197,0.82205-1.13386,1.53071-1.47401,2.18268s-0.42519,1.07716-0.22677,1.30394
			c0.17007,0.22677,0.56693,0.14173,1.21889-0.19843c0.62362-0.36851,1.36063-0.93543,2.23937-1.70079
			c0.85039-0.76535,1.78582-1.67244,2.77795-2.72125c1.02048-1.04883,1.98425-2.15434,2.91969-3.31654
			c0.31181-0.62361,0.56693-1.1622,0.70866-1.61574C109.87558-133.4756,109.87558-133.75906,109.73384-133.8441z"/>
		<path id="_x37__1_" class="st1" d="M114.32597-123.66772c0.08504,0.31181,0.42519,0.31181,0.99212,0.02834
			c0.59528-0.28346,1.33228-0.73701,2.18268-1.33228c0.8504-0.56693,1.72913-1.27559,2.66457-2.04094
			c0.93543-0.7937,1.75748-1.53072,2.49449-2.29607c0.34016-0.34016,0.65197-0.56693,0.96378-0.70866
			c0.31181-0.14172,0.53859-0.19843,0.73701-0.19843c0.17007,0.02835,0.28346,0.11339,0.28346,0.28346
			c0,0.14174-0.14173,0.36852-0.4252,0.62363c-0.17007,0.19843-0.48189,0.51024-0.93543,0.99213s-0.99213,1.04882-1.61575,1.67244
			s-1.27559,1.27559-1.9559,1.95591c-0.70866,0.68031-1.36063,1.30393-2.04095,1.89921
			c-0.65197,0.56693-1.24725,1.07716-1.81417,1.47401c-0.53859,0.36851-0.99213,0.59528-1.30394,0.65197
			c-0.28346,0.05669-0.53858-0.08504-0.82204-0.3685c-0.25512-0.28347-0.4819-0.70866-0.65197-1.2189
			c-0.17008-0.51023-0.28347-1.13386-0.31181-1.81417c-0.05669-0.70866,0.05669-1.44567,0.25512-2.23937
			c0.17007-0.53858,0.48189-1.33228,1.02047-2.35276c0.51024-1.04881,1.13386-2.18268,1.84252-3.40157
			c0.70866-1.2189,1.50237-2.46614,2.32441-3.77008c0.8504-1.27559,1.67244-2.43779,2.46614-3.48662
			c0.82204-1.04881,1.55906-1.89922,2.23937-2.57953c0.68031-0.65196,1.21889-1.02046,1.61575-1.02046
			c0.42519,0,0.82204,0.14172,1.19055,0.45354s0.65197,0.68031,0.8504,1.13387c0.22677,0.45354,0.34016,0.93542,0.42519,1.44566
			c0.05669,0.48189,0.02835,0.90709-0.05669,1.24724c-0.17007,0.48189-0.48189,0.99213-1.02047,1.5874
			c-0.51024,0.59528-1.13386,1.2189-1.81417,1.87086c-0.70866,0.62363-1.47402,1.27559-2.23937,1.92757
			c-0.7937,0.62363-1.55905,1.2189-2.26772,1.75748c-0.68031,0.51024-1.30394,0.99213-1.81417,1.38898
			c-0.53859,0.39685-0.8504,0.65196-1.02048,0.7937l-0.28346,0.28346c-0.70866,1.2189-1.27559,2.32441-1.67244,3.28819
			C114.38266-124.77324,114.24093-124.09292,114.32597-123.66772z M125.55116-140.42049c-0.14173-0.14172-0.48189,0-0.96378,0.45355
			c-0.51024,0.45354-1.10551,1.07716-1.81417,1.89922c-0.68032,0.85039-1.44567,1.78583-2.23937,2.89133
			c-0.7937,1.07716-1.55906,2.18268-2.32441,3.31654c0.90709-0.82205,1.81417-1.70079,2.77795-2.63623
			c0.96378-0.93542,1.84251-1.81416,2.57953-2.60786c0.73701-0.82205,1.30393-1.53072,1.70078-2.12599
			C125.6929-139.82521,125.77794-140.22206,125.55116-140.42049z"/>
		<path id="_x38__1_" class="st1" d="M152.65038-134.6378c0.22678-0.34016,0.62363-0.70866,1.1622-1.07716
			c0.53859-0.39685,1.10551-0.76535,1.75749-1.1622c0.65196-0.36852,1.27559-0.76537,1.9559-1.13387
			c0.65196-0.39685,1.21889-0.76535,1.70079-1.10551c0.48189-0.34015,0.82204-0.68031,1.04881-0.99213s0.22678-0.62361,0-0.90709
			c-0.4252-0.48189-1.13387-0.68031-2.12599-0.56693c-0.96378,0.11339-2.18266,0.4252-3.62834,0.90709
			c-1.19055,0.4252-2.46614,1.02048-3.77008,1.75748c-1.30394,0.73701-2.60786,1.5874-3.88345,2.52284
			c-1.30394,0.96378-2.52284,1.98425-3.71339,3.06142s-2.23936,2.21101-3.20314,3.34488
			c-0.96379,1.13385-1.75749,2.26772-2.40945,3.37323c-0.65196,1.13386-1.07716,2.18267-1.30394,3.20315
			c-0.19843,0.99213-0.17007,1.89921,0.11339,2.72126c0.28346,0.7937,0.90709,1.47401,1.84251,2.04094
			c0.56694,0.34016,1.24725,0.51024,2.04095,0.51024c0.82204,0,1.64409-0.11339,2.52283-0.34016s1.75748-0.51024,2.63622-0.90709
			c0.87875-0.3685,1.67245-0.7937,2.3811-1.21889c0.73701-0.42519,1.33229-0.87874,1.81418-1.30394
			c0.48189-0.45354,0.76535-0.85039,0.87874-1.1622c0.11339-0.4252,0.34016-0.59528,0.68031-0.56693
			c0.34016,0.05669,0.62363,0.25512,0.90709,0.53858c0.28346,0.31181,0.48189,0.70866,0.59528,1.13386
			c0.11339,0.45354,0.02835,0.87875-0.25511,1.2756c-0.28346,0.3685-0.76537,0.7937-1.47401,1.30393
			c-0.70866,0.51024-1.50237,0.99213-2.3811,1.44567c-0.90709,0.45354-1.84253,0.8504-2.8063,1.19055
			s-1.89922,0.51024-2.72125,0.51024c-1.30394,0-2.55119-0.17008-3.71339-0.4819c-1.1622-0.31181-2.18268-0.76535-3.06142-1.33228
			c-0.90709-0.59528-1.61575-1.33228-2.18268-2.15433c-0.53857-0.8504-0.87874-1.78583-0.93542-2.83465
			c-0.08504-0.76535,0.14172-1.78583,0.68031-3.00472c0.53857-1.21889,1.30394-2.52283,2.26772-3.88347
			c0.99213-1.38898,2.18268-2.77795,3.59999-4.19527c1.38898-1.41733,2.91969-2.7496,4.64882-3.94016
			c1.70079-1.2189,3.51497-2.26772,5.47087-3.14647c1.9559-0.87874,3.96851-1.44566,6.0378-1.75748
			c1.41733-0.19843,2.57953-0.19843,3.51495-0.05669c0.93544,0.17007,1.70079,0.42519,2.23938,0.7937
			c0.56693,0.34015,0.93542,0.76535,1.1622,1.24724c0.19843,0.48189,0.31181,0.93544,0.28346,1.33229
			c-0.05669,0.39685-0.4252,0.90707-1.13385,1.5307c-0.70866,0.59528-1.53072,1.24725-2.46614,1.92757
			c-0.93544,0.70866-1.87088,1.41731-2.77795,2.15433c-0.90709,0.737-1.5874,1.44566-2.04095,2.12598
			c-0.17007,0.22678-0.42519,0.31181-0.76535,0.19843c-0.34016-0.11337-0.62363-0.3118-0.87874-0.62361
			s-0.45354-0.68031-0.56693-1.10551S152.36691-134.2693,152.65038-134.6378z"/>
		<path id="_x39_" class="st1" d="M165.94487-129.30867c0.28346-0.25511,0.56693-0.45354,0.85039-0.56693
			c0.28346-0.14174,0.53859-0.19843,0.70866-0.19843c0.19843,0,0.31181,0.05669,0.34015,0.19843
			c0,0.14172-0.08504,0.34015-0.34015,0.56693c-0.14174,0.14174-0.39685,0.4252-0.82205,0.90709
			c-0.4252,0.45354-0.93542,1.02047-1.5307,1.64409c-0.56694,0.62363-1.2189,1.30394-1.92757,2.0126
			c-0.70866,0.73701-1.38898,1.38898-2.06929,1.98425c-0.65196,0.56693-1.27559,1.07716-1.84251,1.47401
			c-0.56694,0.39685-1.02048,0.59528-1.33229,0.59528c-0.34015,0-0.68031-0.08504-1.04881-0.25512
			c-0.34016-0.19843-0.65198-0.4252-0.93544-0.70866c-0.28346-0.31181-0.51024-0.65197-0.70866-1.04882
			c-0.17007-0.39685-0.28346-0.82204-0.28346-1.30393c0-0.45354,0.17009-1.04882,0.48189-1.75748
			c0.31181-0.73701,0.70866-1.47401,1.19055-2.26772s0.99213-1.5874,1.5874-2.3811c0.56694-0.82204,1.13387-1.55905,1.67244-2.23936
			c0.51024-0.68031,0.99213-1.24725,1.38898-1.70079c0.4252-0.45354,0.68031-0.737,0.7937-0.82205
			c0.22678-0.17007,0.51024-0.19843,0.8504-0.14172c0.31181,0.05669,0.62361,0.19843,0.90709,0.3685
			c0.28346,0.19843,0.51022,0.39685,0.65196,0.62363c0.11339,0.25511,0.11339,0.45354-0.05669,0.65196
			c-0.14174,0.14174-0.4252,0.45355-0.90709,1.02048c-0.45355,0.53857-0.99213,1.1622-1.61575,1.92755
			c-0.62363,0.73701-1.27559,1.53072-1.92755,2.3811c-0.68033,0.8504-1.24725,1.6441-1.75749,2.40945
			c-0.51024,0.76535-0.90709,1.44567-1.1622,1.98425c-0.25511,0.56693-0.28346,0.93543-0.08504,1.10551
			c0.11339,0.08504,0.39685,0.02835,0.85039-0.19843c0.45355-0.25512,0.96379-0.56693,1.5874-0.99213
			c0.59528-0.42519,1.24725-0.90708,1.92757-1.44566c0.70866-0.53859,1.36063-1.07717,1.98425-1.55906
			c0.62361-0.51024,1.19055-0.99213,1.64409-1.38898C165.49132-128.85513,165.80313-129.1386,165.94487-129.30867z
			 M164.41415-137.18898c-0.19843-0.25513-0.25511-0.59528-0.19843-0.93544c0.0567-0.3685,0.22678-0.70866,0.45355-1.04881
			c0.22676-0.34016,0.53857-0.62363,0.87874-0.90709c0.3685-0.25511,0.737-0.48189,1.1055-0.59528
			c0.39685-0.14174,0.76537-0.19843,1.13387-0.14174c0.3685,0.0567,0.70866,0.22678,0.96378,0.56694
			c0.28346,0.34015,0.39685,0.68031,0.34016,1.02046c-0.0567,0.34016-0.19843,0.68031-0.48189,0.99213
			s-0.62363,0.56694-1.02048,0.82205c-0.39685,0.22678-0.82205,0.39685-1.24724,0.53859
			c-0.4252,0.11337-0.7937,0.14172-1.16222,0.11337C164.83936-136.79213,164.58423-136.93387,164.41415-137.18898z"/>
		<path id="_x31_0" class="st1" d="M170.62202-136.25356c0.17009-0.14172,0.39685-0.17007,0.68031-0.14172
			c0.28348,0.05669,0.53859,0.14172,0.7937,0.25511c0.25513,0.14174,0.4252,0.31181,0.56694,0.48189
			c0.14172,0.17009,0.14172,0.34016,0,0.51024c-0.25513,0.28346-0.59528,0.68031-1.02048,1.19055
			c-0.4252,0.53859-0.87874,1.1622-1.41733,1.87086c-0.53857,0.73701-1.07716,1.50237-1.67244,2.35275
			c-0.56693,0.87874-1.13385,1.72914-1.67244,2.63622c0.19843-0.25512,0.48189-0.62362,0.90709-1.10551
			c0.39685-0.48189,0.85039-1.02048,1.36063-1.5874c0.51024-0.59528,1.04883-1.19055,1.61575-1.81418
			c0.59528-0.59528,1.1622-1.1622,1.70079-1.67244c0.53857-0.51024,1.04881-0.93542,1.50235-1.27559
			c0.45355-0.34015,0.82205-0.53857,1.07718-0.56693c0.42519-0.02835,0.7937,0.08504,1.07716,0.3685
			c0.31181,0.31181,0.53857,0.65196,0.68031,1.07716c0.14172,0.4252,0.22676,0.8504,0.19843,1.30394
			c0,0.45354-0.11339,0.76535-0.34016,0.99213c-0.22676,0.25511-0.56693,0.65196-0.99213,1.1622
			c-0.42519,0.51024-0.90709,1.07716-1.38898,1.72914c-0.48189,0.62362-0.99213,1.27559-1.47401,1.98425
			c-0.51024,0.68031-0.93542,1.30394-1.27559,1.87086c-0.34015,0.56693-0.56693,1.04882-0.70866,1.44567
			c-0.11339,0.36851-0.05669,0.59528,0.19843,0.62363c0.34016,0.05669,1.27559-0.51024,2.77795-1.67245
			c1.50237-1.1622,3.37323-2.86299,5.55591-5.07401c0.31181-0.31181,0.65196-0.53859,0.93544-0.70866
			c0.3118-0.17007,0.56693-0.22678,0.76535-0.22678c0.17007,0.02835,0.28346,0.11339,0.28346,0.25513
			c0,0.17007-0.14174,0.39685-0.4252,0.68031c-0.65196,0.62363-1.30394,1.30394-1.98425,2.04095
			c-0.68031,0.76535-1.36063,1.47401-2.06929,2.21102c-0.70866,0.70866-1.41731,1.38898-2.09764,2.0126
			c-0.68031,0.62363-1.36063,1.16221-2.01259,1.5874c-0.62363,0.4252-1.24725,0.73701-1.81418,0.87874
			c-0.59528,0.17008-1.10551,0.14174-1.5874-0.08504c-0.51024-0.25512-0.76535-0.68031-0.7937-1.33228
			c0-0.65197,0.17009-1.41732,0.53859-2.32441c0.3685-0.93543,0.90709-1.92756,1.5874-3.00472
			c0.70866-1.10551,1.50237-2.21103,2.3811-3.34488c-0.45355,0.19843-0.96379,0.56693-1.5874,1.07716
			c-0.59528,0.51024-1.2189,1.13385-1.87086,1.81417c-0.62363,0.68031-1.27559,1.41732-1.92757,2.18268
			c-0.62363,0.73701-1.2189,1.44567-1.75748,2.09763c-0.51024,0.65197-0.96378,1.2189-1.33229,1.67245
			c-0.34015,0.45354-0.56693,0.70866-0.65196,0.7937c-0.11339,0.11338-0.25511,0.19843-0.45354,0.22677
			c-0.19843,0.05669-0.36852,0.05669-0.56694,0c-0.19843-0.02834-0.39685-0.11339-0.53857-0.25512
			c-0.17009-0.11339-0.28346-0.31181-0.36852-0.56693c-0.02834-0.14174,0.11339-0.59528,0.45355-1.33228
			c0.34015-0.73701,0.7937-1.6441,1.36063-2.66457c0.53859-1.04881,1.19055-2.15433,1.87086-3.31654
			c0.70866-1.1622,1.38898-2.26772,2.04095-3.28818c0.65196-1.04883,1.24724-1.92757,1.75748-2.66457
			C170.02675-135.62993,170.39526-136.08347,170.62202-136.25356z"/>
		<path id="_x31_1" class="st1" d="M179.35274-123.04411c0.22678,0.25512,0.62363,0.34016,1.1622,0.22678
			c0.56693-0.11339,1.19055-0.34016,1.92757-0.65197c0.70866-0.34016,1.47401-0.73701,2.29605-1.21889
			c0.82205-0.51024,1.6441-1.02048,2.40945-1.55906c0.7937-0.53858,1.50237-1.07716,2.18268-1.61575
			c0.65196-0.53858,1.19055-1.02047,1.61575-1.44567c0.34015-0.34016,0.68031-0.59528,0.99213-0.73701
			c0.31181-0.17007,0.53857-0.25511,0.737-0.22676c0.17007,0,0.28346,0.11339,0.28346,0.28346s-0.14172,0.39685-0.45354,0.68031
			c-0.96378,0.96378-1.98425,1.9559-3.08977,2.97638c-1.10551,1.02047-2.18268,1.92756-3.25984,2.77795
			c-1.07716,0.85039-2.09764,1.53071-3.08977,2.06929c-0.96378,0.51023-1.81416,0.7937-2.52283,0.7937
			c-0.34016,0-0.73701-0.08504-1.1622-0.25512c-0.39685-0.14173-0.7937-0.39685-1.13387-0.73701
			c-0.34015-0.34016-0.65196-0.76536-0.87874-1.30394c-0.22678-0.51024-0.34016-1.1622-0.34016-1.89921
			c0-0.4819,0.19843-1.10551,0.59528-1.84252c0.4252-0.73701,0.93544-1.53072,1.5874-2.35275
			c0.65198-0.7937,1.36064-1.61575,2.15434-2.43781c0.7937-0.82204,1.55905-1.55905,2.35275-2.21101
			c0.76535-0.65198,1.50237-1.19055,2.18268-1.5874c0.70866-0.39685,1.24724-0.59528,1.67244-0.59528
			c0.14172,0,0.3685,0.02835,0.65196,0.14172c0.28346,0.08505,0.56693,0.25513,0.8504,0.4819
			c0.25511,0.22676,0.48189,0.51022,0.68031,0.87874c0.17007,0.3685,0.22676,0.85039,0.17007,1.41731
			c-0.08504,0.56694-0.34016,1.16222-0.76535,1.81418c-0.39685,0.62363-0.90709,1.24724-1.47401,1.84251
			c-0.59528,0.59528-1.19055,1.13387-1.78583,1.61575c-0.62363,0.48189-1.13387,0.82204-1.53072,1.04882
			c-0.737,0.42519-1.41731,0.56693-2.06929,0.39685c-0.65196-0.17008-1.19055-0.45354-1.5874-0.87875
			c-0.62361,0.93544-1.10551,1.75748-1.38898,2.52283C179.01257-123.8945,179.04092-123.35591,179.35274-123.04411z
			 M187.45982-133.19214c-0.19843-0.11339-0.51024-0.05669-0.96378,0.19843c-0.45355,0.25513-0.99213,0.62363-1.55907,1.10551
			c-0.56693,0.48189-1.1622,1.07716-1.78581,1.72914c-0.62363,0.68031-1.2189,1.36063-1.75749,2.09763
			c0.36852,0.17008,0.7937,0.17008,1.27559,0c0.4819-0.14172,0.96379-0.39685,1.47403-0.76535
			c0.48189-0.34015,0.96378-0.737,1.41731-1.19055c0.45355-0.45354,0.8504-0.90709,1.19055-1.36063
			c0.34016-0.4252,0.56693-0.82205,0.70866-1.1622C187.57321-132.88033,187.60156-133.07875,187.45982-133.19214z"/>
		<path id="_x31_2" class="st1" d="M192.42046-124.60316c0.28346,0,0.53857,0.08504,0.7937,0.22677
			c0.25511,0.17008,0.45354,0.34016,0.59528,0.56693c0.14172,0.22677,0.22676,0.45354,0.22676,0.73701
			s-0.11337,0.56693-0.34015,0.8504c-0.22678,0.31181-0.51024,0.53858-0.87874,0.73701
			c-0.39685,0.17007-0.76535,0.31181-1.1622,0.3685s-0.76537,0.05669-1.07718,0c-0.3118-0.05669-0.53857-0.19843-0.62361-0.42519
			c-0.11339-0.25512-0.11339-0.53858,0-0.90709c0.11339-0.34016,0.31181-0.68031,0.56693-0.99213
			c0.25511-0.31181,0.56693-0.59528,0.90709-0.82204C191.74014-124.48977,192.08029-124.60316,192.42046-124.60316z
			 M206.0551-139.93858c-0.11339,0.08504-0.45355,0.39685-0.99213,0.93542c-0.56693,0.53859-1.24724,1.2189-2.04094,2.0126
			s-1.6441,1.64409-2.55119,2.57953c-0.90707,0.93542-1.78583,1.84251-2.57953,2.72125
			c-0.82204,0.87874-1.5307,1.67244-2.15433,2.40945c-0.59528,0.737-0.99213,1.27559-1.19055,1.61575
			c-0.11339,0.22677-0.25511,0.34016-0.3685,0.34016s-0.22678-0.05669-0.34016-0.19843
			c-0.08504-0.11339-0.17007-0.28346-0.22676-0.53859c-0.02835-0.22676-0.02835-0.45354,0-0.68031
			c0.05669-0.31181,0.28346-0.7937,0.68031-1.44566c0.39685-0.65198,0.87874-1.36063,1.47401-2.15433
			c0.59528-0.82205,1.24724-1.6441,1.92755-2.52284c0.68033-0.87874,1.38898-1.72913,2.06931-2.52283
			c0.70865-0.7937,1.33228-1.53072,1.92755-2.15433c0.56693-0.62363,1.04881-1.07718,1.41733-1.38898
			c0.25511-0.22678,0.59528-0.34016,1.07716-0.34016c0.48189-0.02835,0.93542,0.02835,1.36063,0.14174
			c0.39685,0.11337,0.68031,0.28346,0.85039,0.51022C206.53699-140.42049,206.45195-140.16536,206.0551-139.93858z"/>
	</g>
</g>
<g id="Capa_x0020_1_1_">
	<g id="_1961683852160_1_">
		<path class="st0" d="M12.51522,52.23751c6.68773,0.02256,13.34291,0.5416,19.99255,1.15528
			c3.68095-1.52645,8.11604-1.34642,11.65879,0.58497c0.38684,0.2109,0.77919,0.40973,1.17135,0.60896
			c2.75265,0.23625,5.50723,0.44611,8.26581,0.59866c11.16241,0.61732,22.39779,0.45557,33.58892,0.61831
			c3.78883-0.19212,7.58059-0.33535,11.37225-0.4572c8.57304-0.27554,17.14274-0.30563,25.71865-0.37397
			c8.90678-0.07097,17.81589-0.29804,26.7014,0.47454c1.76785,0.15369,3.41789,0.56429,4.90906,1.20221
			c3.20183,0.03748,6.4037,0.07288,9.60562,0.10167c5.81046,0.05228,11.6321-0.04688,17.44,0.12848
			c1.30844,0.03952,2.61697,0.08468,3.92528,0.12056V8.58728H8.38864v44.3849C9.71159,52.495,11.10667,52.23275,12.51522,52.23751z"
			/>
		<polygon class="st1" points="17.18768,16.43753 10.03927,45.46007 178.63773,50.38597 185.68214,12.48641 		"/>
		<polygon class="st2" points="17.18768,16.43753 10.8061,42.35376 175.99931,47.27966 182.19893,12.56439 		"/>
		<path class="st1" d="M36.83931,27.14715c-0.11697,0.84481-0.53288,1.55965-1.24772,2.15752
			c-0.71484,0.61086-1.50766,0.9098-2.37847,0.9098H22.0356l-1.41669,9.85181h-4.79593l3.08031-21.49721h15.97344
			c0.8708,0,1.58564,0.31193,2.11853,0.9098c0.54588,0.59787,0.75383,1.3257,0.63686,2.15752L36.83931,27.14715z M32.22533,25.93842
			l0.4419-3.09331h-9.57887l-0.4419,3.09331H32.22533z"/>
		<path id="_x31__3_" class="st1" d="M56.50393,36.99895c-0.11697,0.83181-0.53288,1.55965-1.24772,2.15752
			c-0.71484,0.61086-1.50766,0.9098-2.37847,0.9098H40.10158c-0.87081,0-1.58565-0.29893-2.11853-0.9098
			c-0.54588-0.59787-0.75383-1.32571-0.63686-2.15752l2.63841-18.42989h4.79593l-2.46945,17.23416h9.57887l2.46945-17.23416h4.78294
			L56.50393,36.99895z"/>
		<path id="_x32__3_" class="st1" d="M77.58523,36.99895c-0.11697,0.83181-0.54588,1.55965-1.26072,2.15752
			c-0.71484,0.61086-1.50766,0.9098-2.37847,0.9098H57.9856l3.08031-21.49721h15.96045c0.8708,0,1.58565,0.31193,2.11853,0.9098
			c0.54588,0.61086,0.75383,1.3257,0.63686,2.17052l-0.48089,3.37925c-0.11697,0.83182-0.54588,1.55965-1.24773,2.15752
			c-0.71484,0.61086-1.52066,0.9098-2.39146,0.9098c0.8708,0,1.58565,0.29893,2.13152,0.8968
			c0.53288,0.61086,0.74084,1.3257,0.62386,2.17052L77.58523,36.99895z M74.37495,25.93842l0.4419-3.09331h-9.57887l-0.4419,3.09331
			H74.37495z M72.95826,35.80322l0.80582-5.58876h-9.57887l-0.80582,5.58876H72.95826z"/>
		<path id="_x33__3_" class="st1" d="M96.62598,40.06627H82.25119c-0.8708,0-1.57265-0.29893-2.11853-0.9098
			c-0.54588-0.59787-0.75383-1.32571-0.63686-2.15752l2.63841-18.42989h4.79593L84.4607,35.80322h12.77615L96.62598,40.06627z"/>
		<polygon id="_x34__3_" class="st1" points="103.3325,40.06627 98.53656,40.06627 101.61687,18.56906 106.41281,18.56906 		"/>
		<path id="_x35__3_" class="st1" d="M122.81516,40.06627h-14.3748c-0.8708,0-1.58565-0.29893-2.11852-0.9098
			c-0.54588-0.59787-0.75384-1.32571-0.63686-2.15752l2.19651-15.34958c0.12997-0.84481,0.54588-1.55965,1.26072-2.17052
			c0.71484-0.59787,1.50767-0.9098,2.37847-0.9098h14.3748l-0.61086,4.27605h-12.77615l-1.85859,12.95811h12.77615
			L122.81516,40.06627z"/>
		<polygon id="_x36__3_" class="st1" points="129.52167,40.06627 124.72573,40.06627 127.80605,18.56906 132.60197,18.56906 		"/>
		<polygon id="_x37__3_" class="st1" points="150.58997,40.06627 145.80704,40.06627 138.07376,27.17314 136.22816,40.06627 
			131.43224,40.06627 134.51254,18.56906 139.30849,18.56906 147.04176,31.44919 148.88734,18.56906 153.67029,18.56906 		"/>
		<path id="_x38__3_" class="st1" d="M170.07263,40.06627h-14.3748c-0.8708,0-1.57265-0.29893-2.11853-0.9098
			c-0.54588-0.59787-0.75383-1.32571-0.62386-2.15752l2.1965-15.34958c0.11697-0.84481,0.53288-1.55965,1.24773-2.17052
			c0.71484-0.59787,1.50766-0.9098,2.37846-0.9098h14.3748l-0.61086,4.27605h-12.77615l-0.44191,3.09331h12.77615l-0.61086,4.27605
			h-12.77615l-0.80583,5.58876h12.77615L170.07263,40.06627z"/>
	</g>
</g>
</svg>
