<svg id="Layer_1" data-name="Layer 1" xmlns="http://www.w3.org/2000/svg" width="204" height="64.5" viewBox="0 0 204 64.5"><defs><style>.cls-1{fill:none;}.cls-2{fill:#201e1e;}.cls-3{fill:#ffcc29;}</style></defs><title>banner</title><g id="Capa_1"><g id="_1961683852160" data-name=" 1961683852160"><path class="cls-1" d="M12.51522,52.23751c6.68773.02256,13.34291.5416,19.99255,1.15528a13.77523,13.77523,0,0,1,11.65879.585c.38684.2109.77919.40973,1.17135.609,2.75265.23625,5.50723.44611,8.26581.59866,11.16242.61732,22.39779.45557,33.58892.6183,3.78883-.19212,7.58059-.33535,11.37225-.45719,8.573-.27554,17.14274-.30563,25.71865-.374,8.90678-.071,17.81589-.298,26.70141.47454a15.97371,15.97371,0,0,1,4.909,1.20221q4.80276.05621,9.60563.10167c5.81045.05228,11.63209-.04688,17.44.12848,1.30845.03952,2.617.08468,3.92528.12056V8.58728H8.38864v44.3849A12.05585,12.05585,0,0,1,12.51522,52.23751Z"/><polygon class="cls-2" points="17.188 16.438 10.039 45.46 178.638 50.386 185.682 12.486 17.188 16.438"/><polygon class="cls-3" points="17.188 16.438 10.806 42.354 175.999 47.28 182.199 12.564 17.188 16.438"/><path class="cls-2" d="M36.8393,27.14715a3.34755,3.34755,0,0,1-1.24772,2.15752,3.56753,3.56753,0,0,1-2.37847.9098H22.0356l-1.41668,9.85181H15.823L18.9033,18.56906H34.87674a2.72216,2.72216,0,0,1,2.11853.9098,2.5343,2.5343,0,0,1,.63686,2.15752Zm-4.614-1.20873.4419-3.09331H23.08837l-.4419,3.09331Z"/><path id="_1" data-name="1" class="cls-2" d="M56.50392,36.999a3.37885,3.37885,0,0,1-1.24772,2.15752,3.56753,3.56753,0,0,1-2.37847.9098H40.10158a2.68,2.68,0,0,1-2.11853-.9098,2.5343,2.5343,0,0,1-.63686-2.15752L39.9846,18.56906h4.79593L42.31109,35.80322H51.89L54.3594,18.56906h4.78293Z"/><path id="_2" data-name="2" class="cls-2" d="M77.58523,36.999a3.398,3.398,0,0,1-1.26072,2.15752,3.56753,3.56753,0,0,1-2.37847.9098H57.98559l3.08031-21.49721H77.02635a2.72216,2.72216,0,0,1,2.11853.9098,2.56119,2.56119,0,0,1,.63686,2.17052l-.48089,3.37925a3.4359,3.4359,0,0,1-1.24772,2.15752,3.59987,3.59987,0,0,1-2.39147.9098,2.75848,2.75848,0,0,1,2.13153.8968,2.59554,2.59554,0,0,1,.62386,2.17052ZM74.37494,25.93842l.4419-3.09331H65.238l-.4419,3.09331Zm-1.41668,9.8648.80582-5.58876H64.18521l-.80582,5.58876Z"/><path id="_3" data-name="3" class="cls-2" d="M96.626,40.06627H82.25119a2.69836,2.69836,0,0,1-2.11853-.9098A2.5343,2.5343,0,0,1,79.4958,36.999l2.63841-18.42989h4.79593L84.4607,35.80322H97.23685Z"/><polygon id="_4" data-name="4" class="cls-2" points="103.332 40.066 98.537 40.066 101.617 18.569 106.413 18.569 103.332 40.066"/><path id="_5" data-name="5" class="cls-2" d="M122.81515,40.06627h-14.3748a2.68,2.68,0,0,1-2.11853-.9098A2.5343,2.5343,0,0,1,105.685,36.999l2.19651-15.34958a3.48425,3.48425,0,0,1,1.26072-2.17052,3.63363,3.63363,0,0,1,2.37847-.9098h14.3748l-.61086,4.276H112.50845l-1.85859,12.95811H123.426Z"/><polygon id="_6" data-name="6" class="cls-2" points="129.522 40.066 124.726 40.066 127.806 18.569 132.602 18.569 129.522 40.066"/><polygon id="_7" data-name="7" class="cls-2" points="150.59 40.066 145.807 40.066 138.074 27.173 136.228 40.066 131.432 40.066 134.513 18.569 139.308 18.569 147.042 31.449 148.887 18.569 153.67 18.569 150.59 40.066"/><path id="_8" data-name="8" class="cls-2" d="M170.07263,40.06627h-14.3748a2.69836,2.69836,0,0,1-2.11853-.9098,2.48767,2.48767,0,0,1-.62386-2.15752L155.152,21.64937a3.40723,3.40723,0,0,1,1.24772-2.17052,3.63363,3.63363,0,0,1,2.37847-.9098h14.3748l-.61086,4.276H159.76592l-.4419,3.09331h12.77615l-.61086,4.276H158.71316l-.80582,5.58876h12.77615Z"/></g></g></svg>