<?xml version="1.0" encoding="UTF-8"?>
<!DOCTYPE svg PUBLIC "-//W3C//DTD SVG 1.1//EN" "http://www.w3.org/Graphics/SVG/1.1/DTD/svg11.dtd">
<!-- Creator: CorelDRAW X8 -->
<svg xmlns="http://www.w3.org/2000/svg" xml:space="preserve" width="215.9mm" height="279.4mm" version="1.1" style="shape-rendering:geometricPrecision; text-rendering:geometricPrecision; image-rendering:optimizeQuality; fill-rule:evenodd; clip-rule:evenodd"
viewBox="0 0 21590 27940"
 xmlns:xlink="http://www.w3.org/1999/xlink">
 <defs>
  <style type="text/css">
   <![CDATA[
    .fil0 {fill:none}
    .fil2 {fill:#FFCC29}
    .fil1 {fill:#201E1E}
    .fil3 {fill:#201E1E;fill-rule:nonzero}
   ]]>
  </style>
 </defs>
 <g id="Capa_x0020_1">
  <metadata id="CorelCorpID_0Corel-Layer"/>
  <g id="_1961683852160">
   <rect class="fil0" x="4767" y="9878" width="13732" height="5133"/>
   <polygon class="fil1" points="5444,10482 4894,12715 17866,13094 18408,10178 "/>
   <polygon class="fil2" points="5444,10482 4953,12476 17663,12855 18140,10184 "/>
   <path class="fil3" d="M6956 11306c-9,65 -41,120 -96,166 -55,47 -116,70 -183,70l-860 0 -109 758 -369 0 237 -1654 1229 0c67,0 122,24 163,70 42,46 58,102 49,166l-61 424zm-355 -93l34 -238 -737 0 -34 238 737 0z"/>
   <path id="1" class="fil3" d="M8469 12064c-9,64 -41,120 -96,166 -55,47 -116,70 -183,70l-983 0c-67,0 -122,-23 -163,-70 -42,-46 -58,-102 -49,-166l203 -1418 369 0 -190 1326 737 0 190 -1326 368 0 -203 1418z"/>
   <path id="2" class="fil3" d="M10091 12064c-9,64 -42,120 -97,166 -55,47 -116,70 -183,70l-1228 0 237 -1654 1228 0c67,0 122,24 163,70 42,47 58,102 49,167l-37 260c-9,64 -42,120 -96,166 -55,47 -117,70 -184,70 67,0 122,23 164,69 41,47 57,102 48,167l-64 449zm-247 -851l34 -238 -737 0 -34 238 737 0zm-109 759l62 -430 -737 0 -62 430 737 0z"/>
   <path id="3" class="fil3" d="M11556 12300l-1106 0c-67,0 -121,-23 -163,-70 -42,-46 -58,-102 -49,-166l203 -1418 369 0 -190 1326 983 0 -47 328z"/>
   <polygon id="4" class="fil3" points="12072,12300 11703,12300 11940,10646 12309,10646 "/>
   <path id="5" class="fil3" d="M13571 12300l-1106 0c-67,0 -122,-23 -163,-70 -42,-46 -58,-102 -49,-166l169 -1181c10,-65 42,-120 97,-167 55,-46 116,-70 183,-70l1106 0 -47 329 -983 0 -143 997 983 0 -47 328z"/>
   <polygon id="6" class="fil3" points="14087,12300 13718,12300 13955,10646 14324,10646 "/>
   <polygon id="7" class="fil3" points="15708,12300 15340,12300 14745,11308 14603,12300 14234,12300 14471,10646 14840,10646 15435,11637 15577,10646 15945,10646 "/>
   <path id="8" class="fil3" d="M17207 12300l-1106 0c-67,0 -121,-23 -163,-70 -42,-46 -58,-102 -48,-166l169 -1181c9,-65 41,-120 96,-167 55,-46 116,-70 183,-70l1106 0 -47 329 -983 0 -34 238 983 0 -47 329 -983 0 -62 430 983 0 -47 328z"/>
   <path class="fil3" d="M8035 13892c20,-13 54,-27 99,-42 45,-15 97,-30 155,-45 58,-15 119,-30 183,-45 65,-14 127,-27 185,-38 59,-11 112,-21 159,-28 47,-7 83,-10 106,-11 9,0 20,2 35,7 14,5 26,10 36,17 9,6 14,13 13,19 0,6 -11,10 -32,12 -25,1 -55,5 -89,11 -34,6 -71,14 -111,23 -41,8 -84,18 -129,30 -45,11 -92,23 -139,36 10,9 18,21 24,36 6,15 6,28 1,37 -15,27 -37,60 -63,99 -27,39 -55,80 -86,125 -31,44 -63,90 -95,136 -32,47 -62,92 -90,135 -27,43 -51,83 -70,119 -20,36 -33,66 -39,88 -4,17 -11,23 -19,20 -8,-4 -17,-12 -25,-26 -9,-13 -16,-29 -22,-47 -7,-19 -9,-34 -8,-47 1,-8 10,-27 29,-57 19,-30 43,-66 71,-108 29,-42 61,-87 96,-136 35,-49 69,-96 102,-142 34,-47 64,-89 92,-129 27,-39 48,-69 62,-91 -43,12 -85,25 -128,39 -42,13 -82,27 -120,40 -39,14 -75,27 -109,40 -34,13 -64,26 -91,39 -11,5 -18,3 -21,-6 -3,-10 -3,-22 -1,-36 2,-15 7,-29 13,-43 7,-15 15,-25 26,-31z"/>
   <path id="1" class="fil3" d="M8555 14392c8,9 21,12 41,8 20,-4 42,-12 67,-23 26,-12 53,-26 82,-43 29,-18 57,-36 85,-55 27,-19 53,-38 76,-57 24,-19 43,-36 58,-51 12,-12 24,-21 35,-26 10,-6 19,-9 26,-8 6,0 9,4 9,10 0,6 -5,14 -15,24 -34,34 -71,69 -109,105 -39,36 -77,68 -115,98 -38,30 -74,54 -109,73 -34,18 -64,28 -89,28 -13,0 -26,-3 -41,-9 -15,-5 -28,-14 -40,-26 -13,-12 -23,-27 -31,-46 -8,-18 -13,-41 -13,-67 0,-17 8,-39 22,-65 14,-26 33,-54 56,-83 22,-28 47,-57 75,-86 28,-29 56,-55 83,-78 28,-23 54,-42 78,-56 25,-14 44,-21 59,-21 5,0 13,1 23,5 10,3 20,9 29,17 10,8 18,18 24,31 7,13 9,30 6,50 -2,20 -11,41 -26,64 -15,22 -32,44 -53,65 -20,21 -41,40 -63,57 -21,17 -39,29 -54,37 -25,15 -49,20 -72,14 -23,-6 -42,-16 -56,-31 -23,33 -39,62 -50,89 -10,26 -10,45 2,56zm286 -358c-7,-4 -18,-2 -35,7 -16,9 -34,22 -54,39 -20,17 -41,38 -63,61 -22,24 -43,48 -62,74 13,6 28,6 45,0 17,-5 34,-14 51,-27 18,-12 35,-26 51,-42 16,-16 30,-32 42,-48 11,-15 20,-29 24,-41 5,-12 5,-19 1,-23z"/>
   <path id="2" class="fil3" d="M9573 14370c3,11 14,11 35,1 21,-10 47,-26 77,-47 30,-20 61,-45 94,-72 33,-28 62,-54 88,-81 11,-12 23,-20 33,-25 11,-5 20,-7 27,-7 6,1 9,4 9,10 0,5 -4,13 -14,22 -6,7 -17,18 -33,35 -16,17 -35,37 -57,59 -22,22 -45,45 -69,69 -25,24 -49,46 -72,67 -23,20 -44,38 -64,52 -19,13 -35,21 -46,23 -9,1 -17,-2 -26,-10 -8,-7 -15,-18 -22,-32 -6,-14 -11,-30 -14,-49 -3,-19 -4,-39 -1,-62 -20,21 -40,42 -60,63 -20,21 -39,40 -58,56 -18,17 -34,30 -49,41 -15,11 -27,17 -37,19 -9,2 -19,-2 -29,-13 -9,-10 -17,-25 -23,-43 -6,-18 -10,-40 -11,-64 -2,-24 2,-51 10,-78 5,-20 16,-48 34,-85 17,-38 38,-79 62,-123 25,-45 51,-90 80,-137 29,-47 57,-89 84,-127 28,-39 53,-70 77,-94 23,-25 42,-37 56,-38 16,0 30,4 42,13 12,8 22,20 29,33 8,14 12,28 15,44 2,16 1,29 -2,42 -6,15 -16,33 -31,53 -15,19 -34,40 -55,61 -21,21 -44,43 -69,65 -24,22 -48,42 -71,62 -23,19 -44,37 -63,52 -19,15 -34,27 -45,36 -15,27 -29,53 -42,78 -13,25 -24,47 -33,68 -9,20 -15,38 -19,54 -4,16 -5,27 -4,35 2,9 11,9 27,2 16,-8 36,-21 60,-39 23,-18 49,-39 76,-64 28,-25 54,-49 80,-74 14,-28 31,-61 51,-99 21,-37 44,-77 70,-117 25,-41 51,-81 78,-120 27,-40 53,-76 78,-107 25,-31 48,-57 69,-76 20,-19 37,-29 49,-30 16,0 30,6 43,17 12,10 22,24 30,40 7,16 12,33 14,50 2,18 2,33 -2,45 -5,16 -17,36 -36,57 -19,22 -41,45 -66,70 -26,24 -54,48 -83,72 -29,24 -56,46 -82,66 -26,20 -48,38 -67,52 -19,15 -31,25 -36,30l-10 10c-25,43 -46,82 -60,116 -15,34 -20,58 -16,73zm408 -609c-5,-5 -17,1 -36,17 -19,17 -41,40 -66,71 -25,31 -53,67 -83,107 -29,41 -57,82 -84,124 32,-31 66,-64 101,-99 35,-34 66,-67 94,-97 27,-31 49,-57 63,-79 15,-22 19,-37 11,-44zm-293 8c-3,-4 -12,2 -25,16 -14,15 -31,35 -51,61 -20,26 -42,57 -66,92 -24,34 -48,71 -72,108 28,-30 57,-59 85,-90 27,-30 52,-58 73,-84 21,-26 37,-48 48,-66 10,-19 13,-31 8,-37z"/>
   <path id="3" class="fil3" d="M9867 14392c8,9 22,12 41,8 20,-4 42,-12 68,-23 25,-12 52,-26 81,-43 29,-18 58,-36 85,-55 28,-19 53,-38 77,-57 23,-19 42,-36 57,-51 12,-12 24,-21 35,-26 11,-6 19,-9 26,-8 6,0 10,4 10,10 0,6 -5,14 -16,24 -34,34 -70,69 -109,105 -39,36 -77,68 -115,98 -38,30 -74,54 -109,73 -34,18 -64,28 -89,28 -12,0 -26,-3 -41,-9 -14,-5 -28,-14 -40,-26 -12,-12 -23,-27 -31,-46 -8,-18 -12,-41 -12,-67 0,-17 7,-39 21,-65 15,-26 33,-54 56,-83 22,-28 48,-57 76,-86 28,-29 55,-55 83,-78 27,-23 53,-42 77,-56 25,-14 44,-21 59,-21 5,0 13,1 23,5 10,3 20,9 30,17 9,8 17,18 24,31 6,13 8,30 6,50 -3,20 -12,41 -27,64 -14,22 -32,44 -53,65 -20,21 -41,40 -62,57 -22,17 -40,29 -54,37 -26,15 -50,20 -73,14 -23,-6 -42,-16 -56,-31 -22,33 -39,62 -49,89 -11,26 -10,45 1,56zm286 -358c-7,-4 -18,-2 -34,7 -16,9 -35,22 -55,39 -20,17 -41,38 -63,61 -22,24 -43,48 -62,74 13,6 28,6 45,0 17,-5 34,-14 52,-27 17,-12 34,-26 50,-42 16,-16 30,-32 42,-48 12,-15 20,-29 25,-41 4,-12 5,-19 0,-23z"/>
   <path id="4" class="fil3" d="M10413 13951c4,-6 11,-9 21,-8 11,2 21,5 30,12 10,6 18,13 25,22 6,10 7,19 3,29 -10,20 -23,44 -40,70 -17,26 -35,54 -55,82 -20,29 -40,58 -60,86 -21,28 -38,54 -54,78 -15,23 -27,43 -36,59 -8,16 -11,27 -7,31 8,12 27,10 54,-5 28,-16 60,-41 95,-76 36,-35 71,-77 108,-126 37,-49 68,-101 93,-156 -7,-10 -10,-22 -10,-36 0,-14 3,-27 8,-40 5,-12 12,-23 21,-33 9,-9 20,-16 32,-18 5,-3 12,-3 19,1 8,3 16,7 23,14 7,6 13,14 18,21 5,8 8,16 8,24 0,7 -1,14 -1,20 -1,7 -3,14 -4,22 29,-1 55,-3 77,-5 23,-3 42,-6 59,-8 16,-3 30,-6 42,-9 12,-4 22,-8 32,-12 9,-4 17,-6 24,-7 8,-2 12,-1 15,2 2,2 1,7 -4,13 -4,7 -14,16 -30,27 -12,9 -27,18 -46,25 -19,7 -39,13 -61,18 -22,6 -44,10 -67,12 -22,3 -44,3 -64,3 -18,41 -43,83 -74,128 -32,45 -65,87 -101,125 -37,39 -72,71 -108,98 -35,26 -65,41 -90,45 -20,2 -39,1 -56,-3 -17,-4 -32,-11 -45,-20 -13,-8 -23,-18 -31,-28 -7,-10 -11,-19 -11,-26 0,-13 5,-30 14,-53 10,-22 22,-47 37,-75 15,-27 32,-56 50,-87 19,-30 38,-60 56,-89 18,-29 36,-57 52,-82 17,-26 30,-48 39,-65z"/>
   <path id="5" class="fil3" d="M11147 14126c-24,36 -45,69 -64,98 -20,30 -35,54 -47,75 -13,20 -21,37 -25,49 -5,12 -4,20 1,22 6,4 19,-2 37,-17 19,-16 40,-34 64,-57 23,-22 46,-45 69,-68 23,-24 41,-43 55,-57 11,-11 23,-20 35,-27 12,-7 22,-11 30,-11 7,0 10,2 10,8 0,7 -7,17 -20,30 -19,20 -43,45 -70,78 -27,32 -53,64 -80,96 -26,31 -51,59 -72,83 -22,24 -38,38 -47,40 -14,5 -26,5 -36,0 -11,-4 -21,-11 -29,-20 -7,-9 -13,-20 -17,-33 -3,-12 -4,-25 -2,-38 1,-11 4,-23 10,-38 6,-14 13,-28 21,-43 8,-14 15,-28 22,-40 7,-13 13,-23 17,-30 -3,6 -10,17 -22,31 -11,14 -25,31 -41,49 -16,18 -34,38 -53,58 -19,20 -38,38 -57,54 -20,16 -38,30 -55,40 -18,11 -33,17 -45,17 -14,0 -27,-6 -40,-17 -12,-10 -23,-24 -31,-40 -8,-16 -14,-33 -18,-52 -3,-18 -3,-34 2,-48 4,-16 16,-37 34,-64 19,-27 41,-56 68,-87 26,-31 54,-62 85,-94 31,-31 61,-59 91,-84 30,-25 57,-44 83,-58 26,-14 46,-19 62,-16 6,2 13,7 21,16 8,9 15,20 20,33 6,13 10,28 11,44 2,17 0,33 -6,48 12,7 22,18 29,33 7,14 7,26 0,37zm-72 -115c-11,-5 -27,-1 -50,12 -23,14 -48,33 -76,58 -28,24 -56,52 -86,83 -30,31 -56,61 -78,90 -22,29 -39,54 -51,77 -13,23 -15,38 -8,46 6,8 20,5 42,-7 23,-13 49,-33 79,-60 31,-27 64,-59 99,-96 35,-37 70,-76 103,-117 11,-22 19,-41 25,-57 6,-16 6,-26 1,-29z"/>
   <path id="6" class="fil3" d="M11991 14126c-24,36 -45,69 -64,98 -19,30 -35,54 -47,75 -12,20 -21,37 -25,49 -4,12 -4,20 1,22 6,4 19,-2 38,-17 18,-16 40,-34 63,-57 24,-22 47,-45 69,-68 23,-24 41,-43 55,-57 12,-11 23,-20 35,-27 13,-7 23,-11 30,-11 7,0 11,2 10,8 0,7 -7,17 -20,30 -19,20 -42,45 -69,78 -27,32 -54,64 -81,96 -26,31 -50,59 -72,83 -22,24 -38,38 -47,40 -13,5 -25,5 -36,0 -11,-4 -20,-11 -28,-20 -8,-9 -14,-20 -17,-33 -4,-12 -5,-25 -3,-38 1,-11 5,-23 11,-38 6,-14 13,-28 21,-43 7,-14 15,-28 22,-40 7,-13 12,-23 17,-30 -4,6 -11,17 -22,31 -12,14 -25,31 -42,49 -16,18 -33,38 -53,58 -19,20 -38,38 -57,54 -19,16 -38,30 -55,40 -17,11 -32,17 -44,17 -14,0 -28,-6 -40,-17 -13,-10 -23,-24 -32,-40 -8,-16 -14,-33 -17,-52 -4,-18 -3,-34 1,-48 4,-16 16,-37 35,-64 18,-27 41,-56 67,-87 26,-31 55,-62 86,-94 31,-31 61,-59 90,-84 30,-25 58,-44 83,-58 26,-14 47,-19 63,-16 6,2 13,7 20,16 8,9 15,20 21,33 5,13 9,28 11,44 2,17 -1,33 -7,48 12,7 22,18 29,33 7,14 7,26 0,37zm-72 -115c-10,-5 -27,-1 -50,12 -22,14 -47,33 -75,58 -28,24 -57,52 -87,83 -29,31 -55,61 -77,90 -23,29 -40,54 -52,77 -12,23 -15,38 -8,46 6,8 20,5 43,-7 22,-13 48,-33 79,-60 30,-27 63,-59 98,-96 36,-37 70,-76 103,-117 11,-22 20,-41 25,-57 6,-16 6,-26 1,-29z"/>
   <path id="7" class="fil3" d="M12081 14370c3,11 15,11 35,1 21,-10 47,-26 77,-47 30,-20 61,-45 94,-72 33,-28 62,-54 88,-81 12,-12 23,-20 34,-25 11,-5 19,-7 26,-7 6,1 10,4 10,10 0,5 -5,13 -15,22 -6,7 -17,18 -33,35 -16,17 -35,37 -57,59 -22,22 -45,45 -69,69 -25,24 -48,46 -72,67 -23,20 -44,38 -64,52 -19,13 -35,21 -46,23 -10,2 -19,-3 -29,-13 -9,-10 -17,-25 -23,-43 -6,-18 -10,-40 -11,-64 -2,-25 2,-51 9,-79 6,-19 17,-47 36,-83 18,-37 40,-77 65,-120 25,-43 53,-87 82,-133 30,-45 59,-86 87,-123 29,-37 55,-67 79,-91 24,-23 43,-36 57,-36 15,0 29,5 42,16 13,11 23,24 30,40 8,16 12,33 15,51 2,17 1,32 -2,44 -6,17 -17,35 -36,56 -18,21 -40,43 -64,66 -25,22 -52,45 -79,68 -28,22 -55,43 -80,62 -24,18 -46,35 -64,49 -19,14 -30,23 -36,28l-10 10c-25,43 -45,82 -59,116 -15,34 -20,58 -17,73zm396 -591c-5,-5 -17,0 -34,16 -18,16 -39,38 -64,67 -24,30 -51,63 -79,102 -28,38 -55,77 -82,117 32,-29 64,-60 98,-93 34,-33 65,-64 91,-92 26,-29 46,-54 60,-75 15,-21 18,-35 10,-42z"/>
   <path id="8" class="fil3" d="M13433 13983c8,-12 22,-25 41,-38 19,-14 39,-27 62,-41 23,-13 45,-27 69,-40 23,-14 43,-27 60,-39 17,-12 29,-24 37,-35 8,-11 8,-22 0,-32 -15,-17 -40,-24 -75,-20 -34,4 -77,15 -128,32 -42,15 -87,36 -133,62 -46,26 -92,56 -137,89 -46,34 -89,70 -131,108 -42,38 -79,78 -113,118 -34,40 -62,80 -85,119 -23,40 -38,77 -46,113 -7,35 -6,67 4,96 10,28 32,52 65,72 20,12 44,18 72,18 29,0 58,-4 89,-12 31,-8 62,-18 93,-32 31,-13 59,-28 84,-43 26,-15 47,-31 64,-46 17,-16 27,-30 31,-41 4,-15 12,-21 24,-20 12,2 22,9 32,19 10,11 17,25 21,40 4,16 1,31 -9,45 -10,13 -27,28 -52,46 -25,18 -53,35 -84,51 -32,16 -65,30 -99,42 -34,12 -67,18 -96,18 -46,0 -90,-6 -131,-17 -41,-11 -77,-27 -108,-47 -32,-21 -57,-47 -77,-76 -19,-30 -31,-63 -33,-100 -3,-27 5,-63 24,-106 19,-43 46,-89 80,-137 35,-49 77,-98 127,-148 49,-50 103,-97 164,-139 60,-43 124,-80 193,-111 69,-31 140,-51 213,-62 50,-7 91,-7 124,-2 33,6 60,15 79,28 20,12 33,27 41,44 7,17 11,33 10,47 -2,14 -15,32 -40,54 -25,21 -54,44 -87,68 -33,25 -66,50 -98,76 -32,26 -56,51 -72,75 -6,8 -15,11 -27,7 -12,-4 -22,-11 -31,-22 -9,-11 -16,-24 -20,-39 -4,-15 -1,-29 9,-42z"/>
   <path id="9" class="fil3" d="M13902 14171c10,-9 20,-16 30,-20 10,-5 19,-7 25,-7 7,0 11,2 12,7 0,5 -3,12 -12,20 -5,5 -14,15 -29,32 -15,16 -33,36 -54,58 -20,22 -43,46 -68,71 -25,26 -49,49 -73,70 -23,20 -45,38 -65,52 -20,14 -36,21 -47,21 -12,0 -24,-3 -37,-9 -12,-7 -23,-15 -33,-25 -10,-11 -18,-23 -25,-37 -6,-14 -10,-29 -10,-46 0,-16 6,-37 17,-62 11,-26 25,-52 42,-80 17,-28 35,-56 56,-84 20,-29 40,-55 59,-79 18,-24 35,-44 49,-60 15,-16 24,-26 28,-29 8,-6 18,-7 30,-5 11,2 22,7 32,13 10,7 18,14 23,22 4,9 4,16 -2,23 -5,5 -15,16 -32,36 -16,19 -35,41 -57,68 -22,26 -45,54 -68,84 -24,30 -44,58 -62,85 -18,27 -32,51 -41,70 -9,20 -10,33 -3,39 4,3 14,1 30,-7 16,-9 34,-20 56,-35 21,-15 44,-32 68,-51 25,-19 48,-38 70,-55 22,-18 42,-35 58,-49 17,-15 28,-25 33,-31zm-54 -278c-7,-9 -9,-21 -7,-33 2,-13 8,-25 16,-37 8,-12 19,-22 31,-32 13,-9 26,-17 39,-21 14,-5 27,-7 40,-5 13,2 25,8 34,20 10,12 14,24 12,36 -2,12 -7,24 -17,35 -10,11 -22,20 -36,29 -14,8 -29,14 -44,19 -15,4 -28,5 -41,4 -12,-1 -21,-6 -27,-15z"/>
   <path id="10" class="fil3" d="M14067 13926c6,-5 14,-6 24,-5 10,2 19,5 28,9 9,5 15,11 20,17 5,6 5,12 0,18 -9,10 -21,24 -36,42 -15,19 -31,41 -50,66 -19,26 -38,53 -59,83 -20,31 -40,61 -59,93 7,-9 17,-22 32,-39 14,-17 30,-36 48,-56 18,-21 37,-42 57,-64 21,-21 41,-41 60,-59 19,-18 37,-33 53,-45 16,-12 29,-19 38,-20 15,-1 28,3 38,13 11,11 19,23 24,38 5,15 8,30 7,46 0,16 -4,27 -12,35 -8,9 -20,23 -35,41 -15,18 -32,38 -49,61 -17,22 -35,45 -52,70 -18,24 -33,46 -45,66 -12,20 -20,37 -25,51 -4,13 -2,21 7,22 12,2 45,-18 98,-59 53,-41 119,-101 196,-179 11,-11 23,-19 33,-25 11,-6 20,-8 27,-8 6,1 10,4 10,9 0,6 -5,14 -15,24 -23,22 -46,46 -70,72 -24,27 -48,52 -73,78 -25,25 -50,49 -74,71 -24,22 -48,41 -71,56 -22,15 -44,26 -64,31 -21,6 -39,5 -56,-3 -18,-9 -27,-24 -28,-47 0,-23 6,-50 19,-82 13,-33 32,-68 56,-106 25,-39 53,-78 84,-118 -16,7 -34,20 -56,38 -21,18 -43,40 -66,64 -22,24 -45,50 -68,77 -22,26 -43,51 -62,74 -18,23 -34,43 -47,59 -12,16 -20,25 -23,28 -4,4 -9,7 -16,8 -7,2 -13,2 -20,0 -7,-1 -14,-4 -19,-9 -6,-4 -10,-11 -13,-20 -1,-5 4,-21 16,-47 12,-26 28,-58 48,-94 19,-37 42,-76 66,-117 25,-41 49,-80 72,-116 23,-37 44,-68 62,-94 19,-26 32,-42 40,-48z"/>
   <path id="11" class="fil3" d="M14375 14392c8,9 22,12 41,8 20,-4 42,-12 68,-23 25,-12 52,-26 81,-43 29,-18 58,-36 85,-55 28,-19 53,-38 77,-57 23,-19 42,-36 57,-51 12,-12 24,-21 35,-26 11,-6 19,-9 26,-8 6,0 10,4 10,10 0,6 -5,14 -16,24 -34,34 -70,69 -109,105 -39,36 -77,68 -115,98 -38,30 -74,54 -109,73 -34,18 -64,28 -89,28 -12,0 -26,-3 -41,-9 -14,-5 -28,-14 -40,-26 -12,-12 -23,-27 -31,-46 -8,-18 -12,-41 -12,-67 0,-17 7,-39 21,-65 15,-26 33,-54 56,-83 23,-28 48,-57 76,-86 28,-29 55,-55 83,-78 27,-23 53,-42 77,-56 25,-14 44,-21 59,-21 5,0 13,1 23,5 10,3 20,9 30,17 9,8 17,18 24,31 6,13 8,30 6,50 -3,20 -12,41 -27,64 -14,22 -32,44 -52,65 -21,21 -42,40 -63,57 -22,17 -40,29 -54,37 -26,15 -50,20 -73,14 -23,-6 -42,-16 -56,-31 -22,33 -39,62 -49,89 -11,26 -10,45 1,56zm286 -358c-7,-4 -18,-2 -34,7 -16,9 -35,22 -55,39 -20,17 -41,38 -63,61 -22,24 -43,48 -62,74 13,6 28,6 45,0 17,-5 34,-14 52,-27 17,-12 34,-26 50,-42 16,-16 30,-32 42,-48 12,-15 20,-29 25,-41 4,-12 5,-19 0,-23z"/>
   <path id="12" class="fil3" d="M14836 14337c10,0 19,3 28,8 9,6 16,12 21,20 5,8 8,16 8,26 0,10 -4,20 -12,30 -8,11 -18,19 -31,26 -14,6 -27,11 -41,13 -14,2 -27,2 -38,0 -11,-2 -19,-7 -22,-15 -4,-9 -4,-19 0,-32 4,-12 11,-24 20,-35 9,-11 20,-21 32,-29 11,-8 23,-12 35,-12zm481 -541c-4,3 -16,14 -35,33 -20,19 -44,43 -72,71 -28,28 -58,58 -90,91 -32,33 -63,65 -91,96 -29,31 -54,59 -76,85 -21,26 -35,45 -42,57 -4,8 -9,12 -13,12 -4,0 -8,-2 -12,-7 -3,-4 -6,-10 -8,-19 -1,-8 -1,-16 0,-24 2,-11 10,-28 24,-51 14,-23 31,-48 52,-76 21,-29 44,-58 68,-89 24,-31 49,-61 73,-89 25,-28 47,-54 68,-76 20,-22 37,-38 50,-49 9,-8 21,-12 38,-12 17,-1 33,1 48,5 14,4 24,10 30,18 5,7 2,16 -12,24z"/>
  </g>
 </g>
</svg>
