<?xml version="1.0" encoding="utf-8"?>
<!-- Generator: Adobe Illustrator 21.0.0, SVG Export Plug-In . SVG Version: 6.00 Build 0)  -->
<svg version="1.1" id="Layer_1" xmlns="http://www.w3.org/2000/svg" xmlns:xlink="http://www.w3.org/1999/xlink" x="0px" y="0px"
	 viewBox="0 0 446 232" style="enable-background:new 0 0 446 232;" xml:space="preserve">
<style type="text/css">
	.st0{fill:none;}
	.st1{fill:#201E1E;}
	.st2{fill:#FFCC29;}
</style>
<g id="Capa_x0020_1">
	<g id="_1961683852160">
		<rect x="26.1" y="46" class="st0" width="389.3" height="145.5"/>
		<polygon class="st1" points="45.3,63.1 29.7,126.4 397.4,137.2 412.8,54.5 		"/>
		<polygon class="st2" points="45.3,63.1 31.4,119.7 391.7,130.4 405.2,54.7 		"/>
		<path class="st1" d="M88.2,86.5c-0.3,1.8-1.2,3.4-2.7,4.7c-1.6,1.3-3.3,2-5.2,2H55.9l-3.1,21.5H42.3l6.7-46.9h34.8
			c1.9,0,3.5,0.7,4.6,2c1.2,1.3,1.6,2.9,1.4,4.7L88.2,86.5z M78.1,83.8l1-6.7H58.2l-1,6.7H78.1z"/>
		<path id="_x31_" class="st1" d="M131.1,108c-0.3,1.8-1.2,3.4-2.7,4.7c-1.6,1.3-3.3,2-5.2,2H95.3c-1.9,0-3.5-0.7-4.6-2
			c-1.2-1.3-1.6-2.9-1.4-4.7L95,67.8h10.5l-5.4,37.6H121l5.4-37.6h10.4L131.1,108z"/>
		<path id="_x32_" class="st1" d="M177,108c-0.3,1.8-1.2,3.4-2.7,4.7c-1.6,1.3-3.3,2-5.2,2h-34.8l6.7-46.9h34.8c1.9,0,3.5,0.7,4.6,2
			c1.2,1.3,1.6,2.9,1.4,4.7l-1,7.4c-0.3,1.8-1.2,3.4-2.7,4.7c-1.6,1.3-3.3,2-5.2,2c1.9,0,3.5,0.7,4.6,2c1.2,1.3,1.6,2.9,1.4,4.7
			L177,108z M170,83.8l1-6.7h-20.9l-1,6.7H170z M167,105.4l1.8-12.2h-20.9l-1.8,12.2H167z"/>
		<path id="_x33_" class="st1" d="M218.6,114.7h-31.4c-1.9,0-3.4-0.7-4.6-2c-1.2-1.3-1.6-2.9-1.4-4.7l5.8-40.2h10.5l-5.4,37.6h27.9
			L218.6,114.7z"/>
		<polygon id="_x34_" class="st1" points="233.2,114.7 222.7,114.7 229.5,67.8 239.9,67.8 		"/>
		<path id="_x35_" class="st1" d="M275.7,114.7h-31.4c-1.9,0-3.5-0.7-4.6-2c-1.2-1.3-1.6-2.9-1.4-4.7l4.8-33.5
			c0.3-1.8,1.2-3.4,2.7-4.7c1.6-1.3,3.3-2,5.2-2h31.4l-1.3,9.3h-27.9l-4.1,28.3H277L275.7,114.7z"/>
		<polygon id="_x36_" class="st1" points="290.3,114.7 279.9,114.7 286.6,67.8 297,67.8 		"/>
		<polygon id="_x37_" class="st1" points="336.3,114.7 325.8,114.7 309,86.5 304.9,114.7 294.5,114.7 301.2,67.8 311.7,67.8 
			328.5,95.9 332.6,67.8 343,67.8 		"/>
		<path id="_x38_" class="st1" d="M378.8,114.7h-31.4c-1.9,0-3.4-0.7-4.6-2c-1.2-1.3-1.6-2.9-1.4-4.7l4.8-33.5
			c0.3-1.8,1.2-3.4,2.7-4.7c1.6-1.3,3.3-2,5.2-2h31.4l-1.3,9.3h-27.9l-1,6.7h27.9l-1.3,9.3H354l-1.8,12.2h27.9L378.8,114.7z"/>
		<path class="st1" d="M118.8,159.8c0.6-0.4,1.5-0.8,2.8-1.2c1.3-0.4,2.7-0.9,4.4-1.3c1.6-0.4,3.4-0.9,5.2-1.3
			c1.8-0.4,3.6-0.8,5.2-1.1c1.7-0.3,3.2-0.6,4.5-0.8c1.3-0.2,2.4-0.3,3-0.3c0.3,0,0.6,0.1,1,0.2c0.4,0.1,0.7,0.3,1,0.5
			c0.3,0.2,0.4,0.4,0.4,0.5c0,0.2-0.3,0.3-0.9,0.3c-0.7,0-1.6,0.1-2.5,0.3c-1,0.2-2,0.4-3.1,0.7c-1.2,0.2-2.4,0.5-3.7,0.9
			c-1.3,0.3-2.6,0.7-3.9,1c0.3,0.3,0.5,0.6,0.7,1c0.2,0.4,0.2,0.8,0,1c-0.4,0.8-1,1.7-1.8,2.8c-0.8,1.1-1.6,2.3-2.4,3.5
			c-0.9,1.2-1.8,2.6-2.7,3.9c-0.9,1.3-1.8,2.6-2.6,3.8c-0.8,1.2-1.4,2.4-2,3.4c-0.6,1-0.9,1.9-1.1,2.5c-0.1,0.5-0.3,0.7-0.5,0.6
			c-0.2-0.1-0.5-0.3-0.7-0.7c-0.3-0.4-0.5-0.8-0.6-1.3c-0.2-0.5-0.3-1-0.2-1.3c0-0.2,0.3-0.8,0.8-1.6c0.5-0.9,1.2-1.9,2-3.1
			c0.8-1.2,1.7-2.5,2.7-3.9s2-2.7,2.9-4c1-1.3,1.8-2.5,2.6-3.7c0.8-1.1,1.4-2,1.8-2.6c-1.2,0.3-2.4,0.7-3.6,1.1
			c-1.2,0.4-2.3,0.8-3.4,1.1c-1.1,0.4-2.1,0.8-3.1,1.1c-1,0.4-1.8,0.7-2.6,1.1c-0.3,0.1-0.5,0.1-0.6-0.2c-0.1-0.3-0.1-0.6,0-1
			c0.1-0.4,0.2-0.8,0.4-1.2C118.2,160.2,118.5,160,118.8,159.8z"/>
		<path id="_x31__1_" class="st1" d="M133.5,174c0.2,0.3,0.6,0.3,1.2,0.2s1.2-0.3,1.9-0.7c0.7-0.3,1.5-0.7,2.3-1.2
			c0.8-0.5,1.6-1,2.4-1.6c0.8-0.5,1.5-1.1,2.2-1.6c0.7-0.5,1.2-1,1.6-1.4c0.3-0.3,0.7-0.6,1-0.7c0.3-0.2,0.5-0.3,0.7-0.2
			c0.2,0,0.3,0.1,0.3,0.3c0,0.2-0.1,0.4-0.4,0.7c-1,1-2,2-3.1,3c-1.1,1-2.2,1.9-3.3,2.8c-1.1,0.9-2.1,1.5-3.1,2.1
			c-1,0.5-1.8,0.8-2.5,0.8c-0.4,0-0.7-0.1-1.2-0.3c-0.4-0.1-0.8-0.4-1.1-0.7c-0.4-0.3-0.7-0.8-0.9-1.3c-0.2-0.5-0.4-1.2-0.4-1.9
			c0-0.5,0.2-1.1,0.6-1.8c0.4-0.7,0.9-1.5,1.6-2.4c0.6-0.8,1.3-1.6,2.1-2.4s1.6-1.6,2.4-2.2c0.8-0.7,1.5-1.2,2.2-1.6
			c0.7-0.4,1.2-0.6,1.7-0.6c0.1,0,0.4,0,0.7,0.1c0.3,0.1,0.6,0.3,0.8,0.5c0.3,0.2,0.5,0.5,0.7,0.9c0.2,0.4,0.3,0.9,0.2,1.4
			c-0.1,0.6-0.3,1.2-0.7,1.8c-0.4,0.6-0.9,1.2-1.5,1.8c-0.6,0.6-1.2,1.1-1.8,1.6c-0.6,0.5-1.1,0.8-1.5,1c-0.7,0.4-1.4,0.6-2,0.4
			s-1.2-0.5-1.6-0.9c-0.7,0.9-1.1,1.8-1.4,2.5C133.2,173.1,133.2,173.7,133.5,174z M141.6,163.8c-0.2-0.1-0.5-0.1-1,0.2
			c-0.5,0.3-1,0.6-1.5,1.1c-0.6,0.5-1.2,1.1-1.8,1.7c-0.6,0.7-1.2,1.4-1.8,2.1c0.4,0.2,0.8,0.2,1.3,0c0.5-0.1,1-0.4,1.4-0.8
			c0.5-0.3,1-0.7,1.4-1.2c0.5-0.5,0.9-0.9,1.2-1.4c0.3-0.4,0.6-0.8,0.7-1.2C141.7,164.1,141.7,163.9,141.6,163.8z"/>
		<path id="_x32__1_" class="st1" d="M162.4,173.3c0.1,0.3,0.4,0.3,1,0s1.3-0.7,2.2-1.3c0.9-0.6,1.7-1.3,2.7-2
			c0.9-0.8,1.8-1.5,2.5-2.3c0.3-0.3,0.7-0.6,0.9-0.7c0.3-0.1,0.6-0.2,0.8-0.2c0.2,0,0.3,0.1,0.3,0.3c0,0.1-0.1,0.4-0.4,0.6
			c-0.2,0.2-0.5,0.5-0.9,1c-0.5,0.5-1,1-1.6,1.7c-0.6,0.6-1.3,1.3-2,2c-0.7,0.7-1.4,1.3-2,1.9c-0.7,0.6-1.2,1.1-1.8,1.5
			c-0.5,0.4-1,0.6-1.3,0.7c-0.3,0-0.5-0.1-0.7-0.3c-0.2-0.2-0.4-0.5-0.6-0.9c-0.2-0.4-0.3-0.9-0.4-1.4c-0.1-0.5-0.1-1.1,0-1.8
			c-0.6,0.6-1.1,1.2-1.7,1.8s-1.1,1.1-1.6,1.6c-0.5,0.5-1,0.9-1.4,1.2c-0.4,0.3-0.8,0.5-1,0.5c-0.3,0.1-0.5-0.1-0.8-0.4
			c-0.3-0.3-0.5-0.7-0.7-1.2s-0.3-1.1-0.3-1.8c-0.1-0.7,0.1-1.4,0.3-2.2c0.1-0.6,0.5-1.4,1-2.4c0.5-1.1,1.1-2.2,1.8-3.5
			c0.7-1.3,1.4-2.6,2.3-3.9c0.8-1.3,1.6-2.5,2.4-3.6c0.8-1.1,1.5-2,2.2-2.7c0.7-0.7,1.2-1,1.6-1.1c0.5,0,0.9,0.1,1.2,0.4
			c0.3,0.2,0.6,0.6,0.8,0.9c0.2,0.4,0.3,0.8,0.4,1.2c0.1,0.5,0,0.8-0.1,1.2c-0.2,0.4-0.5,0.9-0.9,1.5c-0.4,0.5-1,1.1-1.6,1.7
			s-1.2,1.2-2,1.8c-0.7,0.6-1.4,1.2-2,1.8c-0.7,0.5-1.2,1-1.8,1.5c-0.5,0.4-1,0.8-1.3,1c-0.4,0.8-0.8,1.5-1.2,2.2
			c-0.4,0.7-0.7,1.3-0.9,1.9c-0.3,0.6-0.4,1.1-0.5,1.5c-0.1,0.5-0.1,0.8-0.1,1c0.1,0.3,0.3,0.3,0.8,0.1c0.5-0.2,1-0.6,1.7-1.1
			c0.7-0.5,1.4-1.1,2.2-1.8c0.8-0.7,1.5-1.4,2.3-2.1c0.4-0.8,0.9-1.7,1.4-2.8c0.6-1,1.2-2.2,2-3.3c0.7-1.2,1.4-2.3,2.2-3.4
			c0.8-1.1,1.5-2.2,2.2-3c0.7-0.9,1.4-1.6,2-2.2c0.6-0.5,1-0.8,1.4-0.9c0.5,0,0.9,0.2,1.2,0.5c0.3,0.3,0.6,0.7,0.9,1.1
			c0.2,0.5,0.3,0.9,0.4,1.4c0.1,0.5,0.1,0.9-0.1,1.3c-0.1,0.5-0.5,1-1,1.6c-0.5,0.6-1.2,1.3-1.9,2c-0.7,0.7-1.5,1.4-2.4,2
			c-0.8,0.7-1.6,1.3-2.3,1.9c-0.7,0.6-1.4,1.1-1.9,1.5c-0.5,0.4-0.9,0.7-1,0.9l-0.3,0.3c-0.7,1.2-1.3,2.3-1.7,3.3
			C162.4,172.2,162.2,172.9,162.4,173.3z M173.9,156.1c-0.1-0.1-0.5,0-1,0.5c-0.5,0.5-1.2,1.1-1.9,2s-1.5,1.9-2.4,3
			c-0.8,1.2-1.6,2.3-2.4,3.5c0.9-0.9,1.9-1.8,2.9-2.8c1-1,1.9-1.9,2.7-2.7c0.8-0.9,1.4-1.6,1.8-2.2
			C174,156.7,174.2,156.3,173.9,156.1z M165.6,156.3c-0.1-0.1-0.3,0.1-0.7,0.5c-0.4,0.4-0.9,1-1.4,1.7c-0.6,0.7-1.2,1.6-1.9,2.6
			c-0.7,1-1.4,2-2,3.1c0.8-0.9,1.6-1.7,2.4-2.6c0.8-0.9,1.5-1.6,2.1-2.4c0.6-0.7,1-1.4,1.4-1.9C165.7,156.8,165.8,156.5,165.6,156.3
			z"/>
		<path id="_x33__1_" class="st1" d="M170.7,174c0.2,0.3,0.6,0.3,1.2,0.2c0.6-0.1,1.2-0.3,1.9-0.7c0.7-0.3,1.5-0.7,2.3-1.2
			c0.8-0.5,1.6-1,2.4-1.6c0.8-0.5,1.5-1.1,2.2-1.6c0.7-0.5,1.2-1,1.6-1.4c0.3-0.3,0.7-0.6,1-0.7c0.3-0.2,0.5-0.3,0.7-0.2
			c0.2,0,0.3,0.1,0.3,0.3c0,0.2-0.1,0.4-0.5,0.7c-1,1-2,2-3.1,3c-1.1,1-2.2,1.9-3.3,2.8c-1.1,0.9-2.1,1.5-3.1,2.1
			c-1,0.5-1.8,0.8-2.5,0.8c-0.3,0-0.7-0.1-1.2-0.3c-0.4-0.1-0.8-0.4-1.1-0.7c-0.3-0.3-0.7-0.8-0.9-1.3c-0.2-0.5-0.3-1.2-0.3-1.9
			c0-0.5,0.2-1.1,0.6-1.8c0.4-0.7,0.9-1.5,1.6-2.4c0.6-0.8,1.4-1.6,2.2-2.4s1.6-1.6,2.4-2.2c0.8-0.7,1.5-1.2,2.2-1.6
			c0.7-0.4,1.2-0.6,1.7-0.6c0.1,0,0.4,0,0.7,0.1c0.3,0.1,0.6,0.3,0.9,0.5c0.3,0.2,0.5,0.5,0.7,0.9c0.2,0.4,0.2,0.9,0.2,1.4
			c-0.1,0.6-0.3,1.2-0.8,1.8c-0.4,0.6-0.9,1.2-1.5,1.8c-0.6,0.6-1.2,1.1-1.8,1.6c-0.6,0.5-1.1,0.8-1.5,1c-0.7,0.4-1.4,0.6-2.1,0.4
			c-0.7-0.2-1.2-0.5-1.6-0.9c-0.6,0.9-1.1,1.8-1.4,2.5C170.4,173.1,170.4,173.7,170.7,174z M178.8,163.8c-0.2-0.1-0.5-0.1-1,0.2
			c-0.5,0.3-1,0.6-1.6,1.1s-1.2,1.1-1.8,1.7c-0.6,0.7-1.2,1.4-1.8,2.1c0.4,0.2,0.8,0.2,1.3,0c0.5-0.1,1-0.4,1.5-0.8
			c0.5-0.3,1-0.7,1.4-1.2c0.5-0.5,0.9-0.9,1.2-1.4c0.3-0.4,0.6-0.8,0.7-1.2C178.9,164.1,178.9,163.9,178.8,163.8z"/>
		<path id="_x34__1_" class="st1" d="M186.2,161.5c0.1-0.2,0.3-0.3,0.6-0.2c0.3,0.1,0.6,0.1,0.9,0.3c0.3,0.2,0.5,0.4,0.7,0.6
			c0.2,0.3,0.2,0.5,0.1,0.8c-0.3,0.6-0.7,1.2-1.1,2c-0.5,0.7-1,1.5-1.6,2.3c-0.6,0.8-1.1,1.6-1.7,2.4c-0.6,0.8-1.1,1.5-1.5,2.2
			c-0.4,0.7-0.8,1.2-1,1.7c-0.2,0.5-0.3,0.8-0.2,0.9c0.2,0.3,0.8,0.3,1.5-0.1c0.8-0.5,1.7-1.2,2.7-2.2c1-1,2-2.2,3.1-3.6
			s1.9-2.9,2.6-4.4c-0.2-0.3-0.3-0.6-0.3-1s0.1-0.8,0.2-1.1c0.1-0.3,0.3-0.7,0.6-0.9c0.3-0.3,0.6-0.5,0.9-0.5c0.1-0.1,0.3-0.1,0.5,0
			c0.2,0.1,0.5,0.2,0.7,0.4c0.2,0.2,0.4,0.4,0.5,0.6c0.1,0.2,0.2,0.5,0.2,0.7c0,0.2,0,0.4,0,0.6c0,0.2-0.1,0.4-0.1,0.6
			c0.8,0,1.6-0.1,2.2-0.1c0.7-0.1,1.2-0.2,1.7-0.2c0.5-0.1,0.9-0.2,1.2-0.3c0.3-0.1,0.6-0.2,0.9-0.3c0.3-0.1,0.5-0.2,0.7-0.2
			c0.2-0.1,0.3,0,0.4,0.1c0.1,0.1,0,0.2-0.1,0.4c-0.1,0.2-0.4,0.5-0.9,0.8c-0.3,0.3-0.8,0.5-1.3,0.7c-0.5,0.2-1.1,0.4-1.7,0.5
			c-0.6,0.2-1.2,0.3-1.9,0.3c-0.6,0.1-1.2,0.1-1.8,0.1c-0.5,1.2-1.2,2.4-2.1,3.6c-0.9,1.3-1.8,2.5-2.9,3.5c-1,1.1-2,2-3.1,2.8
			c-1,0.7-1.8,1.2-2.6,1.3c-0.6,0.1-1.1,0-1.6-0.1s-0.9-0.3-1.3-0.6c-0.4-0.2-0.7-0.5-0.9-0.8c-0.2-0.3-0.3-0.5-0.3-0.7
			c0-0.4,0.1-0.9,0.4-1.5c0.3-0.6,0.6-1.3,1-2.1c0.4-0.8,0.9-1.6,1.4-2.5c0.5-0.9,1.1-1.7,1.6-2.5c0.5-0.8,1-1.6,1.5-2.3
			C185.5,162.6,185.9,161.9,186.2,161.5z"/>
		<path id="_x35__1_" class="st1" d="M207,166.4c-0.7,1-1.3,2-1.8,2.8c-0.6,0.9-1,1.5-1.3,2.1c-0.4,0.6-0.6,1-0.7,1.4
			c-0.1,0.3-0.1,0.6,0,0.6c0.2,0.1,0.5-0.1,1-0.5c0.5-0.5,1.1-1,1.8-1.6c0.7-0.6,1.3-1.3,2-1.9c0.7-0.7,1.2-1.2,1.6-1.6
			c0.3-0.3,0.7-0.6,1-0.8c0.3-0.2,0.6-0.3,0.9-0.3c0.2,0,0.3,0.1,0.3,0.2c0,0.2-0.2,0.5-0.6,0.9c-0.5,0.6-1.2,1.3-2,2.2
			c-0.8,0.9-1.5,1.8-2.3,2.7c-0.7,0.9-1.4,1.7-2,2.4c-0.6,0.7-1.1,1.1-1.3,1.1c-0.4,0.1-0.7,0.1-1,0c-0.3-0.1-0.6-0.3-0.8-0.6
			c-0.2-0.3-0.4-0.6-0.5-0.9c-0.1-0.3-0.1-0.7-0.1-1.1c0-0.3,0.1-0.7,0.3-1.1c0.2-0.4,0.4-0.8,0.6-1.2c0.2-0.4,0.4-0.8,0.6-1.1
			c0.2-0.4,0.4-0.7,0.5-0.9c-0.1,0.2-0.3,0.5-0.6,0.9c-0.3,0.4-0.7,0.9-1.2,1.4c-0.5,0.5-1,1.1-1.5,1.6c-0.5,0.6-1.1,1.1-1.6,1.5
			c-0.6,0.5-1.1,0.9-1.6,1.1c-0.5,0.3-0.9,0.5-1.3,0.5c-0.4,0-0.8-0.2-1.1-0.5c-0.3-0.3-0.7-0.7-0.9-1.1c-0.2-0.5-0.4-0.9-0.5-1.5
			c-0.1-0.5-0.1-1,0.1-1.4c0.1-0.5,0.5-1,1-1.8c0.5-0.8,1.2-1.6,1.9-2.5c0.7-0.9,1.5-1.8,2.4-2.7c0.9-0.9,1.7-1.7,2.6-2.4
			c0.9-0.7,1.6-1.2,2.4-1.6s1.3-0.5,1.8-0.5c0.2,0.1,0.4,0.2,0.6,0.5c0.2,0.3,0.4,0.6,0.6,0.9c0.2,0.4,0.3,0.8,0.3,1.2
			c0.1,0.5,0,0.9-0.2,1.4c0.3,0.2,0.6,0.5,0.8,0.9C207.2,165.8,207.2,166.1,207,166.4z M204.9,163.2c-0.3-0.1-0.8,0-1.4,0.3
			c-0.7,0.4-1.4,0.9-2.2,1.6c-0.8,0.7-1.6,1.5-2.4,2.4c-0.9,0.9-1.6,1.7-2.2,2.6c-0.6,0.8-1.1,1.5-1.4,2.2c-0.4,0.7-0.4,1.1-0.2,1.3
			c0.2,0.2,0.6,0.1,1.2-0.2c0.7-0.4,1.4-0.9,2.2-1.7c0.9-0.8,1.8-1.7,2.8-2.7c1-1,2-2.2,2.9-3.3c0.3-0.6,0.5-1.2,0.7-1.6
			C205.1,163.5,205.1,163.2,204.9,163.2z"/>
		<path id="_x36__1_" class="st1" d="M230.9,166.4c-0.7,1-1.3,2-1.8,2.8c-0.5,0.9-1,1.5-1.3,2.1c-0.3,0.6-0.6,1-0.7,1.4
			c-0.1,0.3-0.1,0.6,0,0.6c0.2,0.1,0.5-0.1,1.1-0.5c0.5-0.5,1.1-1,1.8-1.6c0.7-0.6,1.3-1.3,2-1.9c0.7-0.7,1.2-1.2,1.6-1.6
			c0.3-0.3,0.7-0.6,1-0.8c0.4-0.2,0.7-0.3,0.9-0.3s0.3,0.1,0.3,0.2c0,0.2-0.2,0.5-0.6,0.9c-0.5,0.6-1.2,1.3-2,2.2
			c-0.8,0.9-1.5,1.8-2.3,2.7c-0.7,0.9-1.4,1.7-2,2.4c-0.6,0.7-1.1,1.1-1.3,1.1c-0.4,0.1-0.7,0.1-1,0c-0.3-0.1-0.6-0.3-0.8-0.6
			c-0.2-0.3-0.4-0.6-0.5-0.9c-0.1-0.3-0.1-0.7-0.1-1.1c0-0.3,0.1-0.7,0.3-1.1c0.2-0.4,0.4-0.8,0.6-1.2c0.2-0.4,0.4-0.8,0.6-1.1
			c0.2-0.4,0.3-0.7,0.5-0.9c-0.1,0.2-0.3,0.5-0.6,0.9c-0.3,0.4-0.7,0.9-1.2,1.4c-0.5,0.5-0.9,1.1-1.5,1.6c-0.5,0.6-1.1,1.1-1.6,1.5
			c-0.5,0.5-1.1,0.9-1.6,1.1c-0.5,0.3-0.9,0.5-1.2,0.5c-0.4,0-0.8-0.2-1.1-0.5c-0.4-0.3-0.7-0.7-0.9-1.1c-0.2-0.5-0.4-0.9-0.5-1.5
			c-0.1-0.5-0.1-1,0-1.4c0.1-0.5,0.5-1,1-1.8c0.5-0.8,1.2-1.6,1.9-2.5c0.7-0.9,1.6-1.8,2.4-2.7c0.9-0.9,1.7-1.7,2.6-2.4
			c0.9-0.7,1.6-1.2,2.4-1.6c0.7-0.4,1.3-0.5,1.8-0.5c0.2,0.1,0.4,0.2,0.6,0.5c0.2,0.3,0.4,0.6,0.6,0.9c0.1,0.4,0.3,0.8,0.3,1.2
			c0.1,0.5,0,0.9-0.2,1.4c0.3,0.2,0.6,0.5,0.8,0.9C231.1,165.8,231.1,166.1,230.9,166.4z M228.9,163.2c-0.3-0.1-0.8,0-1.4,0.3
			c-0.6,0.4-1.3,0.9-2.1,1.6c-0.8,0.7-1.6,1.5-2.5,2.4c-0.8,0.9-1.6,1.7-2.2,2.6c-0.7,0.8-1.1,1.5-1.5,2.2c-0.3,0.7-0.4,1.1-0.2,1.3
			c0.2,0.2,0.6,0.1,1.2-0.2c0.6-0.4,1.4-0.9,2.2-1.7c0.9-0.8,1.8-1.7,2.8-2.7c1-1,2-2.2,2.9-3.3c0.3-0.6,0.6-1.2,0.7-1.6
			C229,163.5,229,163.2,228.9,163.2z"/>
		<path id="_x37__1_" class="st1" d="M233.5,173.3c0.1,0.3,0.4,0.3,1,0c0.6-0.3,1.3-0.7,2.2-1.3c0.9-0.6,1.7-1.3,2.7-2
			c0.9-0.8,1.8-1.5,2.5-2.3c0.3-0.3,0.7-0.6,1-0.7c0.3-0.1,0.5-0.2,0.7-0.2c0.2,0,0.3,0.1,0.3,0.3c0,0.1-0.1,0.4-0.4,0.6
			c-0.2,0.2-0.5,0.5-0.9,1c-0.5,0.5-1,1-1.6,1.7c-0.6,0.6-1.3,1.3-2,2c-0.7,0.7-1.4,1.3-2,1.9c-0.7,0.6-1.2,1.1-1.8,1.5
			c-0.5,0.4-1,0.6-1.3,0.7c-0.3,0.1-0.5-0.1-0.8-0.4c-0.3-0.3-0.5-0.7-0.7-1.2c-0.2-0.5-0.3-1.1-0.3-1.8c-0.1-0.7,0.1-1.4,0.3-2.2
			c0.2-0.5,0.5-1.3,1-2.4c0.5-1,1.1-2.2,1.8-3.4c0.7-1.2,1.5-2.5,2.3-3.8c0.9-1.3,1.7-2.4,2.5-3.5c0.8-1,1.6-1.9,2.2-2.6
			c0.7-0.7,1.2-1,1.6-1c0.4,0,0.8,0.1,1.2,0.5c0.4,0.3,0.7,0.7,0.9,1.1c0.2,0.5,0.3,0.9,0.4,1.4c0.1,0.5,0,0.9-0.1,1.2
			c-0.2,0.5-0.5,1-1,1.6c-0.5,0.6-1.1,1.2-1.8,1.9c-0.7,0.6-1.5,1.3-2.2,1.9c-0.8,0.6-1.6,1.2-2.3,1.8c-0.7,0.5-1.3,1-1.8,1.4
			c-0.5,0.4-0.9,0.7-1,0.8l-0.3,0.3c-0.7,1.2-1.3,2.3-1.7,3.3C233.5,172.2,233.4,172.9,233.5,173.3z M244.7,156.6
			c-0.1-0.1-0.5,0-1,0.5c-0.5,0.5-1.1,1.1-1.8,1.9c-0.7,0.9-1.4,1.8-2.2,2.9c-0.8,1.1-1.6,2.2-2.3,3.3c0.9-0.8,1.8-1.7,2.8-2.6
			c1-0.9,1.8-1.8,2.6-2.6c0.7-0.8,1.3-1.5,1.7-2.1C244.8,157.2,244.9,156.8,244.7,156.6z"/>
		<path id="_x38__1_" class="st1" d="M271.8,162.4c0.2-0.3,0.6-0.7,1.2-1.1c0.5-0.4,1.1-0.8,1.8-1.2c0.7-0.4,1.3-0.8,2-1.1
			c0.7-0.4,1.2-0.8,1.7-1.1c0.5-0.3,0.8-0.7,1-1c0.2-0.3,0.2-0.6,0-0.9c-0.4-0.5-1.1-0.7-2.1-0.6c-1,0.1-2.2,0.4-3.6,0.9
			c-1.2,0.4-2.5,1-3.8,1.8c-1.3,0.7-2.6,1.6-3.9,2.5c-1.3,1-2.5,2-3.7,3.1s-2.2,2.2-3.2,3.3c-1,1.1-1.8,2.3-2.4,3.4
			c-0.7,1.1-1.1,2.2-1.3,3.2c-0.2,1-0.2,1.9,0.1,2.7c0.3,0.8,0.9,1.5,1.8,2c0.6,0.3,1.2,0.5,2,0.5c0.8,0,1.6-0.1,2.5-0.3
			c0.9-0.2,1.8-0.5,2.6-0.9c0.9-0.4,1.7-0.8,2.4-1.2c0.7-0.4,1.3-0.9,1.8-1.3c0.5-0.5,0.8-0.9,0.9-1.2c0.1-0.4,0.3-0.6,0.7-0.6
			c0.3,0.1,0.6,0.3,0.9,0.5c0.3,0.3,0.5,0.7,0.6,1.1c0.1,0.5,0,0.9-0.3,1.3c-0.3,0.4-0.8,0.8-1.5,1.3c-0.7,0.5-1.5,1-2.4,1.4
			c-0.9,0.5-1.8,0.9-2.8,1.2c-1,0.3-1.9,0.5-2.7,0.5c-1.3,0-2.6-0.2-3.7-0.5c-1.2-0.3-2.2-0.8-3.1-1.3c-0.9-0.6-1.6-1.3-2.2-2.2
			c-0.5-0.9-0.9-1.8-0.9-2.8c-0.1-0.8,0.1-1.8,0.7-3c0.5-1.2,1.3-2.5,2.3-3.9c1-1.4,2.2-2.8,3.6-4.2c1.4-1.4,2.9-2.7,4.6-3.9
			c1.7-1.2,3.5-2.3,5.5-3.1c2-0.9,4-1.4,6-1.8c1.4-0.2,2.6-0.2,3.5-0.1c0.9,0.2,1.7,0.4,2.2,0.8c0.6,0.3,0.9,0.8,1.2,1.2
			c0.2,0.5,0.3,0.9,0.3,1.3c-0.1,0.4-0.4,0.9-1.1,1.5c-0.7,0.6-1.5,1.2-2.5,1.9c-0.9,0.7-1.9,1.4-2.8,2.2c-0.9,0.7-1.6,1.4-2,2.1
			c-0.2,0.2-0.4,0.3-0.8,0.2s-0.6-0.3-0.9-0.6c-0.3-0.3-0.5-0.7-0.6-1.1C271.4,163.1,271.5,162.7,271.8,162.4z"/>
		<path id="_x39_" class="st1" d="M285.1,167.7c0.3-0.3,0.6-0.5,0.9-0.6c0.3-0.1,0.5-0.2,0.7-0.2c0.2,0,0.3,0.1,0.3,0.2
			c0,0.1-0.1,0.3-0.3,0.6c-0.1,0.1-0.4,0.4-0.8,0.9c-0.4,0.5-0.9,1-1.5,1.6c-0.6,0.6-1.2,1.3-1.9,2c-0.7,0.7-1.4,1.4-2.1,2
			c-0.7,0.6-1.3,1.1-1.8,1.5c-0.6,0.4-1,0.6-1.3,0.6c-0.3,0-0.7-0.1-1-0.3c-0.3-0.2-0.7-0.4-0.9-0.7c-0.3-0.3-0.5-0.7-0.7-1
			c-0.2-0.4-0.3-0.8-0.3-1.3c0-0.5,0.2-1,0.5-1.8c0.3-0.7,0.7-1.5,1.2-2.3c0.5-0.8,1-1.6,1.6-2.4c0.6-0.8,1.1-1.6,1.7-2.2
			c0.5-0.7,1-1.2,1.4-1.7c0.4-0.5,0.7-0.7,0.8-0.8c0.2-0.2,0.5-0.2,0.9-0.1c0.3,0.1,0.6,0.2,0.9,0.4c0.3,0.2,0.5,0.4,0.7,0.6
			c0.1,0.3,0.1,0.5-0.1,0.7c-0.1,0.1-0.4,0.5-0.9,1c-0.5,0.5-1,1.2-1.6,1.9c-0.6,0.7-1.3,1.5-1.9,2.4c-0.7,0.9-1.2,1.6-1.8,2.4
			c-0.5,0.8-0.9,1.4-1.2,2c-0.3,0.6-0.3,0.9-0.1,1.1c0.1,0.1,0.4,0,0.9-0.2c0.5-0.3,1-0.6,1.6-1c0.6-0.4,1.2-0.9,1.9-1.4
			c0.7-0.5,1.4-1.1,2-1.6c0.6-0.5,1.2-1,1.6-1.4C284.6,168.2,284.9,167.9,285.1,167.7z M283.5,159.8c-0.2-0.3-0.3-0.6-0.2-0.9
			c0.1-0.4,0.2-0.7,0.5-1c0.2-0.3,0.5-0.6,0.9-0.9c0.4-0.3,0.7-0.5,1.1-0.6c0.4-0.1,0.8-0.2,1.1-0.1c0.4,0.1,0.7,0.2,1,0.6
			c0.3,0.3,0.4,0.7,0.3,1c-0.1,0.3-0.2,0.7-0.5,1c-0.3,0.3-0.6,0.6-1,0.8c-0.4,0.2-0.8,0.4-1.2,0.5c-0.4,0.1-0.8,0.1-1.2,0.1
			C284,160.2,283.7,160.1,283.5,159.8z"/>
		<path id="_x31_0" class="st1" d="M289.7,160.8c0.2-0.1,0.4-0.2,0.7-0.1c0.3,0.1,0.5,0.1,0.8,0.3c0.3,0.1,0.4,0.3,0.6,0.5
			s0.1,0.3,0,0.5c-0.3,0.3-0.6,0.7-1,1.2c-0.4,0.5-0.9,1.2-1.4,1.9c-0.5,0.7-1.1,1.5-1.7,2.4c-0.6,0.9-1.1,1.7-1.7,2.6
			c0.2-0.3,0.5-0.6,0.9-1.1c0.4-0.5,0.9-1,1.4-1.6c0.5-0.6,1-1.2,1.6-1.8c0.6-0.6,1.2-1.2,1.7-1.7s1-0.9,1.5-1.3
			c0.5-0.3,0.8-0.5,1.1-0.6c0.4,0,0.8,0.1,1.1,0.4c0.3,0.3,0.5,0.7,0.7,1.1c0.1,0.4,0.2,0.9,0.2,1.3c0,0.5-0.1,0.8-0.3,1
			c-0.2,0.3-0.6,0.7-1,1.2s-0.9,1.1-1.4,1.7c-0.5,0.6-1,1.3-1.5,2c-0.5,0.7-0.9,1.3-1.3,1.9c-0.3,0.6-0.6,1-0.7,1.4
			c-0.1,0.4-0.1,0.6,0.2,0.6c0.3,0.1,1.3-0.5,2.8-1.7c1.5-1.2,3.4-2.9,5.6-5.1c0.3-0.3,0.7-0.5,0.9-0.7c0.3-0.2,0.6-0.2,0.8-0.2
			c0.2,0,0.3,0.1,0.3,0.3c0,0.2-0.1,0.4-0.4,0.7c-0.7,0.6-1.3,1.3-2,2c-0.7,0.8-1.4,1.5-2.1,2.2c-0.7,0.7-1.4,1.4-2.1,2
			c-0.7,0.6-1.4,1.2-2,1.6c-0.6,0.4-1.2,0.7-1.8,0.9c-0.6,0.2-1.1,0.1-1.6-0.1c-0.5-0.3-0.8-0.7-0.8-1.3c0-0.7,0.2-1.4,0.5-2.3
			c0.4-0.9,0.9-1.9,1.6-3c0.7-1.1,1.5-2.2,2.4-3.3c-0.5,0.2-1,0.6-1.6,1.1c-0.6,0.5-1.2,1.1-1.9,1.8c-0.6,0.7-1.3,1.4-1.9,2.2
			c-0.6,0.7-1.2,1.4-1.8,2.1c-0.5,0.7-1,1.2-1.3,1.7c-0.3,0.5-0.6,0.7-0.7,0.8c-0.1,0.1-0.3,0.2-0.5,0.2c-0.2,0.1-0.4,0.1-0.6,0
			c-0.2,0-0.4-0.1-0.5-0.3c-0.2-0.1-0.3-0.3-0.4-0.6c0-0.1,0.1-0.6,0.5-1.3c0.3-0.7,0.8-1.6,1.4-2.7c0.5-1,1.2-2.2,1.9-3.3
			c0.7-1.2,1.4-2.3,2-3.3c0.7-1,1.2-1.9,1.8-2.7C289.2,161.4,289.5,160.9,289.7,160.8z"/>
		<path id="_x31_1" class="st1" d="M298.5,174c0.2,0.3,0.6,0.3,1.2,0.2c0.6-0.1,1.2-0.3,1.9-0.7c0.7-0.3,1.5-0.7,2.3-1.2
			c0.8-0.5,1.6-1,2.4-1.6c0.8-0.5,1.5-1.1,2.2-1.6c0.7-0.5,1.2-1,1.6-1.4c0.3-0.3,0.7-0.6,1-0.7c0.3-0.2,0.5-0.3,0.7-0.2
			c0.2,0,0.3,0.1,0.3,0.3c0,0.2-0.1,0.4-0.5,0.7c-1,1-2,2-3.1,3c-1.1,1-2.2,1.9-3.3,2.8c-1.1,0.9-2.1,1.5-3.1,2.1
			c-1,0.5-1.8,0.8-2.5,0.8c-0.3,0-0.7-0.1-1.2-0.3c-0.4-0.1-0.8-0.4-1.1-0.7c-0.3-0.3-0.7-0.8-0.9-1.3c-0.2-0.5-0.3-1.2-0.3-1.9
			c0-0.5,0.2-1.1,0.6-1.8c0.4-0.7,0.9-1.5,1.6-2.4c0.7-0.8,1.4-1.6,2.2-2.4s1.6-1.6,2.4-2.2c0.8-0.7,1.5-1.2,2.2-1.6
			c0.7-0.4,1.2-0.6,1.7-0.6c0.1,0,0.4,0,0.7,0.1c0.3,0.1,0.6,0.3,0.9,0.5c0.3,0.2,0.5,0.5,0.7,0.9c0.2,0.4,0.2,0.9,0.2,1.4
			c-0.1,0.6-0.3,1.2-0.8,1.8c-0.4,0.6-0.9,1.2-1.5,1.8c-0.6,0.6-1.2,1.1-1.8,1.6c-0.6,0.5-1.1,0.8-1.5,1c-0.7,0.4-1.4,0.6-2.1,0.4
			s-1.2-0.5-1.6-0.9c-0.6,0.9-1.1,1.8-1.4,2.5C298.1,173.1,298.2,173.7,298.5,174z M306.6,163.8c-0.2-0.1-0.5-0.1-1,0.2
			c-0.5,0.3-1,0.6-1.6,1.1s-1.2,1.1-1.8,1.7c-0.6,0.7-1.2,1.4-1.8,2.1c0.4,0.2,0.8,0.2,1.3,0c0.5-0.1,1-0.4,1.5-0.8
			c0.5-0.3,1-0.7,1.4-1.2c0.5-0.5,0.9-0.9,1.2-1.4c0.3-0.4,0.6-0.8,0.7-1.2C306.7,164.1,306.7,163.9,306.6,163.8z"/>
		<path id="_x31_2" class="st1" d="M311.5,172.4c0.3,0,0.5,0.1,0.8,0.2c0.3,0.2,0.5,0.3,0.6,0.6s0.2,0.5,0.2,0.7
			c0,0.3-0.1,0.6-0.3,0.9c-0.2,0.3-0.5,0.5-0.9,0.7c-0.4,0.2-0.8,0.3-1.2,0.4c-0.4,0.1-0.8,0.1-1.1,0c-0.3-0.1-0.5-0.2-0.6-0.4
			c-0.1-0.3-0.1-0.5,0-0.9c0.1-0.3,0.3-0.7,0.6-1c0.3-0.3,0.6-0.6,0.9-0.8C310.9,172.5,311.2,172.4,311.5,172.4z M325.2,157.1
			c-0.1,0.1-0.5,0.4-1,0.9c-0.6,0.5-1.2,1.2-2,2s-1.6,1.6-2.6,2.6c-0.9,0.9-1.8,1.8-2.6,2.7c-0.8,0.9-1.5,1.7-2.2,2.4
			c-0.6,0.7-1,1.3-1.2,1.6c-0.1,0.2-0.3,0.3-0.4,0.3s-0.2-0.1-0.3-0.2c-0.1-0.1-0.2-0.3-0.2-0.5c0-0.2,0-0.5,0-0.7
			c0.1-0.3,0.3-0.8,0.7-1.4c0.4-0.7,0.9-1.4,1.5-2.2c0.6-0.8,1.2-1.6,1.9-2.5c0.7-0.9,1.4-1.7,2.1-2.5c0.7-0.8,1.3-1.5,1.9-2.2
			c0.6-0.6,1-1.1,1.4-1.4c0.3-0.2,0.6-0.3,1.1-0.3c0.5,0,0.9,0,1.4,0.1c0.4,0.1,0.7,0.3,0.9,0.5
			C325.7,156.6,325.6,156.8,325.2,157.1z"/>
	</g>
</g>
</svg>
