<svg id="Layer_1" data-name="Layer 1" xmlns="http://www.w3.org/2000/svg" width="204" height="64.5" viewBox="0 0 204 64.5"><defs><style>.cls-1{fill:none}.cls-2{fill:#201e1e}.cls-3{fill:#ffcc29}</style></defs><title>banner</title><g id="Capa_1"><g id="_1961683852160" data-name="1961683852160"><path class="cls-1" d="M12.515 52.238c6.688.022 13.343.541 19.993 1.155a13.775 13.775 0 0 1 11.659.585c.386.21.779.41 1.17.609 2.754.236 5.508.446 8.267.598 11.162.618 22.398.456 33.589.619 3.788-.192 7.58-.336 11.372-.457 8.573-.276 17.143-.306 25.719-.374 8.906-.071 17.815-.298 26.7.474a15.974 15.974 0 0 1 4.91 1.202q4.803.057 9.606.102c5.81.052 11.632-.047 17.44.128 1.308.04 2.617.085 3.925.121V8.587H8.389v44.385a12.056 12.056 0 0 1 4.126-.734z"/><path class="cls-2" d="M17.188 16.438L10.039 45.46l168.599 4.926 7.044-37.9-168.494 3.952z"/><path class="cls-3" d="M17.188 16.438l-6.382 25.916 165.193 4.926 6.2-34.716-165.011 3.874z"/><path class="cls-2" d="M36.84 27.147a3.348 3.348 0 0 1-1.248 2.158 3.568 3.568 0 0 1-2.379.91H22.036l-1.417 9.851h-4.796l3.08-21.497h15.974a2.722 2.722 0 0 1 2.118.91 2.534 2.534 0 0 1 .637 2.157zm-4.615-1.209l.442-3.093h-9.579l-.442 3.093z"/><path id="_1" data-name="1" class="cls-2" d="M56.504 36.999a3.379 3.379 0 0 1-1.248 2.158 3.568 3.568 0 0 1-2.378.91H40.102a2.68 2.68 0 0 1-2.119-.91 2.534 2.534 0 0 1-.637-2.158l2.639-18.43h4.796l-2.47 17.234h9.579l2.47-17.234h4.782z"/><path id="_2" data-name="2" class="cls-2" d="M77.585 36.999a3.398 3.398 0 0 1-1.26 2.158 3.568 3.568 0 0 1-2.379.91h-15.96l3.08-21.498h15.96a2.722 2.722 0 0 1 2.119.91 2.561 2.561 0 0 1 .637 2.17l-.481 3.38a3.436 3.436 0 0 1-1.248 2.157 3.6 3.6 0 0 1-2.391.91 2.758 2.758 0 0 1 2.131.897 2.596 2.596 0 0 1 .624 2.17zm-3.21-11.06l.442-3.094h-9.579l-.442 3.093zm-1.417 9.864l.806-5.589h-9.579l-.806 5.59z"/><path id="_3" data-name="3" class="cls-2" d="M96.626 40.066H82.251a2.698 2.698 0 0 1-2.118-.91A2.534 2.534 0 0 1 79.496 37l2.638-18.43h4.796l-2.47 17.234h12.777z"/><path id="_4" data-name="4" class="cls-2" d="M103.332 40.066h-4.795l3.08-21.497h4.796l-3.081 21.497z"/><path id="_5" data-name="5" class="cls-2" d="M122.815 40.066H108.44a2.68 2.68 0 0 1-2.118-.91 2.534 2.534 0 0 1-.637-2.157l2.197-15.35a3.484 3.484 0 0 1 1.26-2.17 3.634 3.634 0 0 1 2.379-.91h14.375l-.611 4.276h-12.777l-1.858 12.958h12.776z"/><path id="_6" data-name="6" class="cls-2" d="M129.522 40.066h-4.796l3.08-21.497h4.796l-3.08 21.497z"/><path id="_7" data-name="7" class="cls-2" d="M150.59 40.066h-4.783l-7.733-12.893-1.846 12.893h-4.796l3.081-21.497h4.795l7.734 12.88 1.845-12.88h4.783l-3.08 21.497z"/><path id="_8" data-name="8" class="cls-2" d="M170.073 40.066h-14.375a2.698 2.698 0 0 1-2.119-.91 2.488 2.488 0 0 1-.624-2.157l2.197-15.35a3.407 3.407 0 0 1 1.248-2.17 3.634 3.634 0 0 1 2.378-.91h14.375l-.61 4.276h-12.777l-.442 3.093H172.1l-.61 4.276h-12.777l-.806 5.59h12.776z"/></g></g></svg>